G04 #@! TF.GenerationSoftware,KiCad,Pcbnew,5.1.2-f72e74a~84~ubuntu18.04.1*
G04 #@! TF.CreationDate,2019-07-25T17:33:10+02:00*
G04 #@! TF.ProjectId,lightboard,6c696768-7462-46f6-9172-642e6b696361,rev?*
G04 #@! TF.SameCoordinates,Original*
G04 #@! TF.FileFunction,Soldermask,Bot*
G04 #@! TF.FilePolarity,Negative*
%FSLAX46Y46*%
G04 Gerber Fmt 4.6, Leading zero omitted, Abs format (unit mm)*
G04 Created by KiCad (PCBNEW 5.1.2-f72e74a~84~ubuntu18.04.1) date 2019-07-25 17:33:10*
%MOMM*%
%LPD*%
G04 APERTURE LIST*
%ADD10C,0.100000*%
G04 APERTURE END LIST*
D10*
G36*
X157788231Y-82206705D02*
G01*
X157826967Y-82214410D01*
X157857195Y-82226931D01*
X157899944Y-82244638D01*
X157965622Y-82288523D01*
X158021477Y-82344378D01*
X158065362Y-82410056D01*
X158095590Y-82483034D01*
X158111000Y-82560504D01*
X158111000Y-82639496D01*
X158095590Y-82716966D01*
X158065362Y-82789944D01*
X158021477Y-82855622D01*
X157965622Y-82911477D01*
X157899944Y-82955362D01*
X157857195Y-82973069D01*
X157826967Y-82985590D01*
X157788231Y-82993295D01*
X157749496Y-83001000D01*
X157670504Y-83001000D01*
X157631769Y-82993295D01*
X157593033Y-82985590D01*
X157562805Y-82973069D01*
X157520056Y-82955362D01*
X157454378Y-82911477D01*
X157398523Y-82855622D01*
X157354638Y-82789944D01*
X157324410Y-82716966D01*
X157309000Y-82639496D01*
X157309000Y-82560504D01*
X157324410Y-82483034D01*
X157354638Y-82410056D01*
X157398523Y-82344378D01*
X157454378Y-82288523D01*
X157520056Y-82244638D01*
X157562805Y-82226931D01*
X157593033Y-82214410D01*
X157631769Y-82206705D01*
X157670504Y-82199000D01*
X157749496Y-82199000D01*
X157788231Y-82206705D01*
X157788231Y-82206705D01*
G37*
G36*
X156088231Y-82206705D02*
G01*
X156126967Y-82214410D01*
X156157195Y-82226931D01*
X156199944Y-82244638D01*
X156265622Y-82288523D01*
X156321477Y-82344378D01*
X156365362Y-82410056D01*
X156395590Y-82483034D01*
X156411000Y-82560504D01*
X156411000Y-82639496D01*
X156395590Y-82716966D01*
X156365362Y-82789944D01*
X156321477Y-82855622D01*
X156265622Y-82911477D01*
X156199944Y-82955362D01*
X156157195Y-82973069D01*
X156126967Y-82985590D01*
X156088231Y-82993295D01*
X156049496Y-83001000D01*
X155970504Y-83001000D01*
X155931769Y-82993295D01*
X155893033Y-82985590D01*
X155862805Y-82973069D01*
X155820056Y-82955362D01*
X155754378Y-82911477D01*
X155698523Y-82855622D01*
X155654638Y-82789944D01*
X155624410Y-82716966D01*
X155609000Y-82639496D01*
X155609000Y-82560504D01*
X155624410Y-82483034D01*
X155654638Y-82410056D01*
X155698523Y-82344378D01*
X155754378Y-82288523D01*
X155820056Y-82244638D01*
X155862805Y-82226931D01*
X155893033Y-82214410D01*
X155931769Y-82206705D01*
X155970504Y-82199000D01*
X156049496Y-82199000D01*
X156088231Y-82206705D01*
X156088231Y-82206705D01*
G37*
M02*
