G04 #@! TF.GenerationSoftware,KiCad,Pcbnew,5.1.2-f72e74a~84~ubuntu18.04.1*
G04 #@! TF.CreationDate,2019-07-25T17:33:10+02:00*
G04 #@! TF.ProjectId,lightboard,6c696768-7462-46f6-9172-642e6b696361,rev?*
G04 #@! TF.SameCoordinates,Original*
G04 #@! TF.FileFunction,Paste,Top*
G04 #@! TF.FilePolarity,Positive*
%FSLAX46Y46*%
G04 Gerber Fmt 4.6, Leading zero omitted, Abs format (unit mm)*
G04 Created by KiCad (PCBNEW 5.1.2-f72e74a~84~ubuntu18.04.1) date 2019-07-25 17:33:10*
%MOMM*%
%LPD*%
G04 APERTURE LIST*
%ADD10C,0.100000*%
%ADD11C,0.850000*%
%ADD12C,0.875000*%
%ADD13C,0.800000*%
%ADD14C,0.600000*%
%ADD15C,0.400000*%
%ADD16C,0.250000*%
G04 APERTURE END LIST*
D10*
G36*
X170013329Y-95058523D02*
G01*
X170033957Y-95061583D01*
X170054185Y-95066650D01*
X170073820Y-95073676D01*
X170092672Y-95082592D01*
X170110559Y-95093313D01*
X170127309Y-95105735D01*
X170142760Y-95119740D01*
X170156765Y-95135191D01*
X170169187Y-95151941D01*
X170179908Y-95169828D01*
X170188824Y-95188680D01*
X170195850Y-95208315D01*
X170200917Y-95228543D01*
X170203977Y-95249171D01*
X170205000Y-95270000D01*
X170205000Y-96070000D01*
X170203977Y-96090829D01*
X170200917Y-96111457D01*
X170195850Y-96131685D01*
X170188824Y-96151320D01*
X170179908Y-96170172D01*
X170169187Y-96188059D01*
X170156765Y-96204809D01*
X170142760Y-96220260D01*
X170127309Y-96234265D01*
X170110559Y-96246687D01*
X170092672Y-96257408D01*
X170073820Y-96266324D01*
X170054185Y-96273350D01*
X170033957Y-96278417D01*
X170013329Y-96281477D01*
X169992500Y-96282500D01*
X169567500Y-96282500D01*
X169546671Y-96281477D01*
X169526043Y-96278417D01*
X169505815Y-96273350D01*
X169486180Y-96266324D01*
X169467328Y-96257408D01*
X169449441Y-96246687D01*
X169432691Y-96234265D01*
X169417240Y-96220260D01*
X169403235Y-96204809D01*
X169390813Y-96188059D01*
X169380092Y-96170172D01*
X169371176Y-96151320D01*
X169364150Y-96131685D01*
X169359083Y-96111457D01*
X169356023Y-96090829D01*
X169355000Y-96070000D01*
X169355000Y-95270000D01*
X169356023Y-95249171D01*
X169359083Y-95228543D01*
X169364150Y-95208315D01*
X169371176Y-95188680D01*
X169380092Y-95169828D01*
X169390813Y-95151941D01*
X169403235Y-95135191D01*
X169417240Y-95119740D01*
X169432691Y-95105735D01*
X169449441Y-95093313D01*
X169467328Y-95082592D01*
X169486180Y-95073676D01*
X169505815Y-95066650D01*
X169526043Y-95061583D01*
X169546671Y-95058523D01*
X169567500Y-95057500D01*
X169992500Y-95057500D01*
X170013329Y-95058523D01*
X170013329Y-95058523D01*
G37*
D11*
X169780000Y-95670000D03*
D10*
G36*
X170013329Y-96683523D02*
G01*
X170033957Y-96686583D01*
X170054185Y-96691650D01*
X170073820Y-96698676D01*
X170092672Y-96707592D01*
X170110559Y-96718313D01*
X170127309Y-96730735D01*
X170142760Y-96744740D01*
X170156765Y-96760191D01*
X170169187Y-96776941D01*
X170179908Y-96794828D01*
X170188824Y-96813680D01*
X170195850Y-96833315D01*
X170200917Y-96853543D01*
X170203977Y-96874171D01*
X170205000Y-96895000D01*
X170205000Y-97695000D01*
X170203977Y-97715829D01*
X170200917Y-97736457D01*
X170195850Y-97756685D01*
X170188824Y-97776320D01*
X170179908Y-97795172D01*
X170169187Y-97813059D01*
X170156765Y-97829809D01*
X170142760Y-97845260D01*
X170127309Y-97859265D01*
X170110559Y-97871687D01*
X170092672Y-97882408D01*
X170073820Y-97891324D01*
X170054185Y-97898350D01*
X170033957Y-97903417D01*
X170013329Y-97906477D01*
X169992500Y-97907500D01*
X169567500Y-97907500D01*
X169546671Y-97906477D01*
X169526043Y-97903417D01*
X169505815Y-97898350D01*
X169486180Y-97891324D01*
X169467328Y-97882408D01*
X169449441Y-97871687D01*
X169432691Y-97859265D01*
X169417240Y-97845260D01*
X169403235Y-97829809D01*
X169390813Y-97813059D01*
X169380092Y-97795172D01*
X169371176Y-97776320D01*
X169364150Y-97756685D01*
X169359083Y-97736457D01*
X169356023Y-97715829D01*
X169355000Y-97695000D01*
X169355000Y-96895000D01*
X169356023Y-96874171D01*
X169359083Y-96853543D01*
X169364150Y-96833315D01*
X169371176Y-96813680D01*
X169380092Y-96794828D01*
X169390813Y-96776941D01*
X169403235Y-96760191D01*
X169417240Y-96744740D01*
X169432691Y-96730735D01*
X169449441Y-96718313D01*
X169467328Y-96707592D01*
X169486180Y-96698676D01*
X169505815Y-96691650D01*
X169526043Y-96686583D01*
X169546671Y-96683523D01*
X169567500Y-96682500D01*
X169992500Y-96682500D01*
X170013329Y-96683523D01*
X170013329Y-96683523D01*
G37*
D11*
X169780000Y-97295000D03*
D10*
G36*
X146993329Y-86948523D02*
G01*
X147013957Y-86951583D01*
X147034185Y-86956650D01*
X147053820Y-86963676D01*
X147072672Y-86972592D01*
X147090559Y-86983313D01*
X147107309Y-86995735D01*
X147122760Y-87009740D01*
X147136765Y-87025191D01*
X147149187Y-87041941D01*
X147159908Y-87059828D01*
X147168824Y-87078680D01*
X147175850Y-87098315D01*
X147180917Y-87118543D01*
X147183977Y-87139171D01*
X147185000Y-87160000D01*
X147185000Y-87960000D01*
X147183977Y-87980829D01*
X147180917Y-88001457D01*
X147175850Y-88021685D01*
X147168824Y-88041320D01*
X147159908Y-88060172D01*
X147149187Y-88078059D01*
X147136765Y-88094809D01*
X147122760Y-88110260D01*
X147107309Y-88124265D01*
X147090559Y-88136687D01*
X147072672Y-88147408D01*
X147053820Y-88156324D01*
X147034185Y-88163350D01*
X147013957Y-88168417D01*
X146993329Y-88171477D01*
X146972500Y-88172500D01*
X146547500Y-88172500D01*
X146526671Y-88171477D01*
X146506043Y-88168417D01*
X146485815Y-88163350D01*
X146466180Y-88156324D01*
X146447328Y-88147408D01*
X146429441Y-88136687D01*
X146412691Y-88124265D01*
X146397240Y-88110260D01*
X146383235Y-88094809D01*
X146370813Y-88078059D01*
X146360092Y-88060172D01*
X146351176Y-88041320D01*
X146344150Y-88021685D01*
X146339083Y-88001457D01*
X146336023Y-87980829D01*
X146335000Y-87960000D01*
X146335000Y-87160000D01*
X146336023Y-87139171D01*
X146339083Y-87118543D01*
X146344150Y-87098315D01*
X146351176Y-87078680D01*
X146360092Y-87059828D01*
X146370813Y-87041941D01*
X146383235Y-87025191D01*
X146397240Y-87009740D01*
X146412691Y-86995735D01*
X146429441Y-86983313D01*
X146447328Y-86972592D01*
X146466180Y-86963676D01*
X146485815Y-86956650D01*
X146506043Y-86951583D01*
X146526671Y-86948523D01*
X146547500Y-86947500D01*
X146972500Y-86947500D01*
X146993329Y-86948523D01*
X146993329Y-86948523D01*
G37*
D11*
X146760000Y-87560000D03*
D10*
G36*
X146993329Y-88573523D02*
G01*
X147013957Y-88576583D01*
X147034185Y-88581650D01*
X147053820Y-88588676D01*
X147072672Y-88597592D01*
X147090559Y-88608313D01*
X147107309Y-88620735D01*
X147122760Y-88634740D01*
X147136765Y-88650191D01*
X147149187Y-88666941D01*
X147159908Y-88684828D01*
X147168824Y-88703680D01*
X147175850Y-88723315D01*
X147180917Y-88743543D01*
X147183977Y-88764171D01*
X147185000Y-88785000D01*
X147185000Y-89585000D01*
X147183977Y-89605829D01*
X147180917Y-89626457D01*
X147175850Y-89646685D01*
X147168824Y-89666320D01*
X147159908Y-89685172D01*
X147149187Y-89703059D01*
X147136765Y-89719809D01*
X147122760Y-89735260D01*
X147107309Y-89749265D01*
X147090559Y-89761687D01*
X147072672Y-89772408D01*
X147053820Y-89781324D01*
X147034185Y-89788350D01*
X147013957Y-89793417D01*
X146993329Y-89796477D01*
X146972500Y-89797500D01*
X146547500Y-89797500D01*
X146526671Y-89796477D01*
X146506043Y-89793417D01*
X146485815Y-89788350D01*
X146466180Y-89781324D01*
X146447328Y-89772408D01*
X146429441Y-89761687D01*
X146412691Y-89749265D01*
X146397240Y-89735260D01*
X146383235Y-89719809D01*
X146370813Y-89703059D01*
X146360092Y-89685172D01*
X146351176Y-89666320D01*
X146344150Y-89646685D01*
X146339083Y-89626457D01*
X146336023Y-89605829D01*
X146335000Y-89585000D01*
X146335000Y-88785000D01*
X146336023Y-88764171D01*
X146339083Y-88743543D01*
X146344150Y-88723315D01*
X146351176Y-88703680D01*
X146360092Y-88684828D01*
X146370813Y-88666941D01*
X146383235Y-88650191D01*
X146397240Y-88634740D01*
X146412691Y-88620735D01*
X146429441Y-88608313D01*
X146447328Y-88597592D01*
X146466180Y-88588676D01*
X146485815Y-88581650D01*
X146506043Y-88576583D01*
X146526671Y-88573523D01*
X146547500Y-88572500D01*
X146972500Y-88572500D01*
X146993329Y-88573523D01*
X146993329Y-88573523D01*
G37*
D11*
X146760000Y-89185000D03*
D10*
G36*
X163387691Y-83428553D02*
G01*
X163408926Y-83431703D01*
X163429750Y-83436919D01*
X163449962Y-83444151D01*
X163469368Y-83453330D01*
X163487781Y-83464366D01*
X163505024Y-83477154D01*
X163520930Y-83491570D01*
X163535346Y-83507476D01*
X163548134Y-83524719D01*
X163559170Y-83543132D01*
X163568349Y-83562538D01*
X163575581Y-83582750D01*
X163580797Y-83603574D01*
X163583947Y-83624809D01*
X163585000Y-83646250D01*
X163585000Y-84083750D01*
X163583947Y-84105191D01*
X163580797Y-84126426D01*
X163575581Y-84147250D01*
X163568349Y-84167462D01*
X163559170Y-84186868D01*
X163548134Y-84205281D01*
X163535346Y-84222524D01*
X163520930Y-84238430D01*
X163505024Y-84252846D01*
X163487781Y-84265634D01*
X163469368Y-84276670D01*
X163449962Y-84285849D01*
X163429750Y-84293081D01*
X163408926Y-84298297D01*
X163387691Y-84301447D01*
X163366250Y-84302500D01*
X162853750Y-84302500D01*
X162832309Y-84301447D01*
X162811074Y-84298297D01*
X162790250Y-84293081D01*
X162770038Y-84285849D01*
X162750632Y-84276670D01*
X162732219Y-84265634D01*
X162714976Y-84252846D01*
X162699070Y-84238430D01*
X162684654Y-84222524D01*
X162671866Y-84205281D01*
X162660830Y-84186868D01*
X162651651Y-84167462D01*
X162644419Y-84147250D01*
X162639203Y-84126426D01*
X162636053Y-84105191D01*
X162635000Y-84083750D01*
X162635000Y-83646250D01*
X162636053Y-83624809D01*
X162639203Y-83603574D01*
X162644419Y-83582750D01*
X162651651Y-83562538D01*
X162660830Y-83543132D01*
X162671866Y-83524719D01*
X162684654Y-83507476D01*
X162699070Y-83491570D01*
X162714976Y-83477154D01*
X162732219Y-83464366D01*
X162750632Y-83453330D01*
X162770038Y-83444151D01*
X162790250Y-83436919D01*
X162811074Y-83431703D01*
X162832309Y-83428553D01*
X162853750Y-83427500D01*
X163366250Y-83427500D01*
X163387691Y-83428553D01*
X163387691Y-83428553D01*
G37*
D12*
X163110000Y-83865000D03*
D10*
G36*
X163387691Y-85003553D02*
G01*
X163408926Y-85006703D01*
X163429750Y-85011919D01*
X163449962Y-85019151D01*
X163469368Y-85028330D01*
X163487781Y-85039366D01*
X163505024Y-85052154D01*
X163520930Y-85066570D01*
X163535346Y-85082476D01*
X163548134Y-85099719D01*
X163559170Y-85118132D01*
X163568349Y-85137538D01*
X163575581Y-85157750D01*
X163580797Y-85178574D01*
X163583947Y-85199809D01*
X163585000Y-85221250D01*
X163585000Y-85658750D01*
X163583947Y-85680191D01*
X163580797Y-85701426D01*
X163575581Y-85722250D01*
X163568349Y-85742462D01*
X163559170Y-85761868D01*
X163548134Y-85780281D01*
X163535346Y-85797524D01*
X163520930Y-85813430D01*
X163505024Y-85827846D01*
X163487781Y-85840634D01*
X163469368Y-85851670D01*
X163449962Y-85860849D01*
X163429750Y-85868081D01*
X163408926Y-85873297D01*
X163387691Y-85876447D01*
X163366250Y-85877500D01*
X162853750Y-85877500D01*
X162832309Y-85876447D01*
X162811074Y-85873297D01*
X162790250Y-85868081D01*
X162770038Y-85860849D01*
X162750632Y-85851670D01*
X162732219Y-85840634D01*
X162714976Y-85827846D01*
X162699070Y-85813430D01*
X162684654Y-85797524D01*
X162671866Y-85780281D01*
X162660830Y-85761868D01*
X162651651Y-85742462D01*
X162644419Y-85722250D01*
X162639203Y-85701426D01*
X162636053Y-85680191D01*
X162635000Y-85658750D01*
X162635000Y-85221250D01*
X162636053Y-85199809D01*
X162639203Y-85178574D01*
X162644419Y-85157750D01*
X162651651Y-85137538D01*
X162660830Y-85118132D01*
X162671866Y-85099719D01*
X162684654Y-85082476D01*
X162699070Y-85066570D01*
X162714976Y-85052154D01*
X162732219Y-85039366D01*
X162750632Y-85028330D01*
X162770038Y-85019151D01*
X162790250Y-85011919D01*
X162811074Y-85006703D01*
X162832309Y-85003553D01*
X162853750Y-85002500D01*
X163366250Y-85002500D01*
X163387691Y-85003553D01*
X163387691Y-85003553D01*
G37*
D12*
X163110000Y-85440000D03*
D10*
G36*
X144257691Y-98178553D02*
G01*
X144278926Y-98181703D01*
X144299750Y-98186919D01*
X144319962Y-98194151D01*
X144339368Y-98203330D01*
X144357781Y-98214366D01*
X144375024Y-98227154D01*
X144390930Y-98241570D01*
X144405346Y-98257476D01*
X144418134Y-98274719D01*
X144429170Y-98293132D01*
X144438349Y-98312538D01*
X144445581Y-98332750D01*
X144450797Y-98353574D01*
X144453947Y-98374809D01*
X144455000Y-98396250D01*
X144455000Y-98833750D01*
X144453947Y-98855191D01*
X144450797Y-98876426D01*
X144445581Y-98897250D01*
X144438349Y-98917462D01*
X144429170Y-98936868D01*
X144418134Y-98955281D01*
X144405346Y-98972524D01*
X144390930Y-98988430D01*
X144375024Y-99002846D01*
X144357781Y-99015634D01*
X144339368Y-99026670D01*
X144319962Y-99035849D01*
X144299750Y-99043081D01*
X144278926Y-99048297D01*
X144257691Y-99051447D01*
X144236250Y-99052500D01*
X143723750Y-99052500D01*
X143702309Y-99051447D01*
X143681074Y-99048297D01*
X143660250Y-99043081D01*
X143640038Y-99035849D01*
X143620632Y-99026670D01*
X143602219Y-99015634D01*
X143584976Y-99002846D01*
X143569070Y-98988430D01*
X143554654Y-98972524D01*
X143541866Y-98955281D01*
X143530830Y-98936868D01*
X143521651Y-98917462D01*
X143514419Y-98897250D01*
X143509203Y-98876426D01*
X143506053Y-98855191D01*
X143505000Y-98833750D01*
X143505000Y-98396250D01*
X143506053Y-98374809D01*
X143509203Y-98353574D01*
X143514419Y-98332750D01*
X143521651Y-98312538D01*
X143530830Y-98293132D01*
X143541866Y-98274719D01*
X143554654Y-98257476D01*
X143569070Y-98241570D01*
X143584976Y-98227154D01*
X143602219Y-98214366D01*
X143620632Y-98203330D01*
X143640038Y-98194151D01*
X143660250Y-98186919D01*
X143681074Y-98181703D01*
X143702309Y-98178553D01*
X143723750Y-98177500D01*
X144236250Y-98177500D01*
X144257691Y-98178553D01*
X144257691Y-98178553D01*
G37*
D12*
X143980000Y-98615000D03*
D10*
G36*
X144257691Y-99753553D02*
G01*
X144278926Y-99756703D01*
X144299750Y-99761919D01*
X144319962Y-99769151D01*
X144339368Y-99778330D01*
X144357781Y-99789366D01*
X144375024Y-99802154D01*
X144390930Y-99816570D01*
X144405346Y-99832476D01*
X144418134Y-99849719D01*
X144429170Y-99868132D01*
X144438349Y-99887538D01*
X144445581Y-99907750D01*
X144450797Y-99928574D01*
X144453947Y-99949809D01*
X144455000Y-99971250D01*
X144455000Y-100408750D01*
X144453947Y-100430191D01*
X144450797Y-100451426D01*
X144445581Y-100472250D01*
X144438349Y-100492462D01*
X144429170Y-100511868D01*
X144418134Y-100530281D01*
X144405346Y-100547524D01*
X144390930Y-100563430D01*
X144375024Y-100577846D01*
X144357781Y-100590634D01*
X144339368Y-100601670D01*
X144319962Y-100610849D01*
X144299750Y-100618081D01*
X144278926Y-100623297D01*
X144257691Y-100626447D01*
X144236250Y-100627500D01*
X143723750Y-100627500D01*
X143702309Y-100626447D01*
X143681074Y-100623297D01*
X143660250Y-100618081D01*
X143640038Y-100610849D01*
X143620632Y-100601670D01*
X143602219Y-100590634D01*
X143584976Y-100577846D01*
X143569070Y-100563430D01*
X143554654Y-100547524D01*
X143541866Y-100530281D01*
X143530830Y-100511868D01*
X143521651Y-100492462D01*
X143514419Y-100472250D01*
X143509203Y-100451426D01*
X143506053Y-100430191D01*
X143505000Y-100408750D01*
X143505000Y-99971250D01*
X143506053Y-99949809D01*
X143509203Y-99928574D01*
X143514419Y-99907750D01*
X143521651Y-99887538D01*
X143530830Y-99868132D01*
X143541866Y-99849719D01*
X143554654Y-99832476D01*
X143569070Y-99816570D01*
X143584976Y-99802154D01*
X143602219Y-99789366D01*
X143620632Y-99778330D01*
X143640038Y-99769151D01*
X143660250Y-99761919D01*
X143681074Y-99756703D01*
X143702309Y-99753553D01*
X143723750Y-99752500D01*
X144236250Y-99752500D01*
X144257691Y-99753553D01*
X144257691Y-99753553D01*
G37*
D12*
X143980000Y-100190000D03*
D10*
G36*
X167697691Y-103648553D02*
G01*
X167718926Y-103651703D01*
X167739750Y-103656919D01*
X167759962Y-103664151D01*
X167779368Y-103673330D01*
X167797781Y-103684366D01*
X167815024Y-103697154D01*
X167830930Y-103711570D01*
X167845346Y-103727476D01*
X167858134Y-103744719D01*
X167869170Y-103763132D01*
X167878349Y-103782538D01*
X167885581Y-103802750D01*
X167890797Y-103823574D01*
X167893947Y-103844809D01*
X167895000Y-103866250D01*
X167895000Y-104303750D01*
X167893947Y-104325191D01*
X167890797Y-104346426D01*
X167885581Y-104367250D01*
X167878349Y-104387462D01*
X167869170Y-104406868D01*
X167858134Y-104425281D01*
X167845346Y-104442524D01*
X167830930Y-104458430D01*
X167815024Y-104472846D01*
X167797781Y-104485634D01*
X167779368Y-104496670D01*
X167759962Y-104505849D01*
X167739750Y-104513081D01*
X167718926Y-104518297D01*
X167697691Y-104521447D01*
X167676250Y-104522500D01*
X167163750Y-104522500D01*
X167142309Y-104521447D01*
X167121074Y-104518297D01*
X167100250Y-104513081D01*
X167080038Y-104505849D01*
X167060632Y-104496670D01*
X167042219Y-104485634D01*
X167024976Y-104472846D01*
X167009070Y-104458430D01*
X166994654Y-104442524D01*
X166981866Y-104425281D01*
X166970830Y-104406868D01*
X166961651Y-104387462D01*
X166954419Y-104367250D01*
X166949203Y-104346426D01*
X166946053Y-104325191D01*
X166945000Y-104303750D01*
X166945000Y-103866250D01*
X166946053Y-103844809D01*
X166949203Y-103823574D01*
X166954419Y-103802750D01*
X166961651Y-103782538D01*
X166970830Y-103763132D01*
X166981866Y-103744719D01*
X166994654Y-103727476D01*
X167009070Y-103711570D01*
X167024976Y-103697154D01*
X167042219Y-103684366D01*
X167060632Y-103673330D01*
X167080038Y-103664151D01*
X167100250Y-103656919D01*
X167121074Y-103651703D01*
X167142309Y-103648553D01*
X167163750Y-103647500D01*
X167676250Y-103647500D01*
X167697691Y-103648553D01*
X167697691Y-103648553D01*
G37*
D12*
X167420000Y-104085000D03*
D10*
G36*
X167697691Y-105223553D02*
G01*
X167718926Y-105226703D01*
X167739750Y-105231919D01*
X167759962Y-105239151D01*
X167779368Y-105248330D01*
X167797781Y-105259366D01*
X167815024Y-105272154D01*
X167830930Y-105286570D01*
X167845346Y-105302476D01*
X167858134Y-105319719D01*
X167869170Y-105338132D01*
X167878349Y-105357538D01*
X167885581Y-105377750D01*
X167890797Y-105398574D01*
X167893947Y-105419809D01*
X167895000Y-105441250D01*
X167895000Y-105878750D01*
X167893947Y-105900191D01*
X167890797Y-105921426D01*
X167885581Y-105942250D01*
X167878349Y-105962462D01*
X167869170Y-105981868D01*
X167858134Y-106000281D01*
X167845346Y-106017524D01*
X167830930Y-106033430D01*
X167815024Y-106047846D01*
X167797781Y-106060634D01*
X167779368Y-106071670D01*
X167759962Y-106080849D01*
X167739750Y-106088081D01*
X167718926Y-106093297D01*
X167697691Y-106096447D01*
X167676250Y-106097500D01*
X167163750Y-106097500D01*
X167142309Y-106096447D01*
X167121074Y-106093297D01*
X167100250Y-106088081D01*
X167080038Y-106080849D01*
X167060632Y-106071670D01*
X167042219Y-106060634D01*
X167024976Y-106047846D01*
X167009070Y-106033430D01*
X166994654Y-106017524D01*
X166981866Y-106000281D01*
X166970830Y-105981868D01*
X166961651Y-105962462D01*
X166954419Y-105942250D01*
X166949203Y-105921426D01*
X166946053Y-105900191D01*
X166945000Y-105878750D01*
X166945000Y-105441250D01*
X166946053Y-105419809D01*
X166949203Y-105398574D01*
X166954419Y-105377750D01*
X166961651Y-105357538D01*
X166970830Y-105338132D01*
X166981866Y-105319719D01*
X166994654Y-105302476D01*
X167009070Y-105286570D01*
X167024976Y-105272154D01*
X167042219Y-105259366D01*
X167060632Y-105248330D01*
X167080038Y-105239151D01*
X167100250Y-105231919D01*
X167121074Y-105226703D01*
X167142309Y-105223553D01*
X167163750Y-105222500D01*
X167676250Y-105222500D01*
X167697691Y-105223553D01*
X167697691Y-105223553D01*
G37*
D12*
X167420000Y-105660000D03*
D10*
G36*
X158829603Y-83600963D02*
G01*
X158849018Y-83603843D01*
X158868057Y-83608612D01*
X158886537Y-83615224D01*
X158904279Y-83623616D01*
X158921114Y-83633706D01*
X158936879Y-83645398D01*
X158951421Y-83658579D01*
X158964602Y-83673121D01*
X158976294Y-83688886D01*
X158986384Y-83705721D01*
X158994776Y-83723463D01*
X159001388Y-83741943D01*
X159006157Y-83760982D01*
X159009037Y-83780397D01*
X159010000Y-83800000D01*
X159010000Y-84200000D01*
X159009037Y-84219603D01*
X159006157Y-84239018D01*
X159001388Y-84258057D01*
X158994776Y-84276537D01*
X158986384Y-84294279D01*
X158976294Y-84311114D01*
X158964602Y-84326879D01*
X158951421Y-84341421D01*
X158936879Y-84354602D01*
X158921114Y-84366294D01*
X158904279Y-84376384D01*
X158886537Y-84384776D01*
X158868057Y-84391388D01*
X158849018Y-84396157D01*
X158829603Y-84399037D01*
X158810000Y-84400000D01*
X158310000Y-84400000D01*
X158290397Y-84399037D01*
X158270982Y-84396157D01*
X158251943Y-84391388D01*
X158233463Y-84384776D01*
X158215721Y-84376384D01*
X158198886Y-84366294D01*
X158183121Y-84354602D01*
X158168579Y-84341421D01*
X158155398Y-84326879D01*
X158143706Y-84311114D01*
X158133616Y-84294279D01*
X158125224Y-84276537D01*
X158118612Y-84258057D01*
X158113843Y-84239018D01*
X158110963Y-84219603D01*
X158110000Y-84200000D01*
X158110000Y-83800000D01*
X158110963Y-83780397D01*
X158113843Y-83760982D01*
X158118612Y-83741943D01*
X158125224Y-83723463D01*
X158133616Y-83705721D01*
X158143706Y-83688886D01*
X158155398Y-83673121D01*
X158168579Y-83658579D01*
X158183121Y-83645398D01*
X158198886Y-83633706D01*
X158215721Y-83623616D01*
X158233463Y-83615224D01*
X158251943Y-83608612D01*
X158270982Y-83603843D01*
X158290397Y-83600963D01*
X158310000Y-83600000D01*
X158810000Y-83600000D01*
X158829603Y-83600963D01*
X158829603Y-83600963D01*
G37*
D13*
X158560000Y-84000000D03*
D10*
G36*
X155429603Y-83600963D02*
G01*
X155449018Y-83603843D01*
X155468057Y-83608612D01*
X155486537Y-83615224D01*
X155504279Y-83623616D01*
X155521114Y-83633706D01*
X155536879Y-83645398D01*
X155551421Y-83658579D01*
X155564602Y-83673121D01*
X155576294Y-83688886D01*
X155586384Y-83705721D01*
X155594776Y-83723463D01*
X155601388Y-83741943D01*
X155606157Y-83760982D01*
X155609037Y-83780397D01*
X155610000Y-83800000D01*
X155610000Y-84200000D01*
X155609037Y-84219603D01*
X155606157Y-84239018D01*
X155601388Y-84258057D01*
X155594776Y-84276537D01*
X155586384Y-84294279D01*
X155576294Y-84311114D01*
X155564602Y-84326879D01*
X155551421Y-84341421D01*
X155536879Y-84354602D01*
X155521114Y-84366294D01*
X155504279Y-84376384D01*
X155486537Y-84384776D01*
X155468057Y-84391388D01*
X155449018Y-84396157D01*
X155429603Y-84399037D01*
X155410000Y-84400000D01*
X154910000Y-84400000D01*
X154890397Y-84399037D01*
X154870982Y-84396157D01*
X154851943Y-84391388D01*
X154833463Y-84384776D01*
X154815721Y-84376384D01*
X154798886Y-84366294D01*
X154783121Y-84354602D01*
X154768579Y-84341421D01*
X154755398Y-84326879D01*
X154743706Y-84311114D01*
X154733616Y-84294279D01*
X154725224Y-84276537D01*
X154718612Y-84258057D01*
X154713843Y-84239018D01*
X154710963Y-84219603D01*
X154710000Y-84200000D01*
X154710000Y-83800000D01*
X154710963Y-83780397D01*
X154713843Y-83760982D01*
X154718612Y-83741943D01*
X154725224Y-83723463D01*
X154733616Y-83705721D01*
X154743706Y-83688886D01*
X154755398Y-83673121D01*
X154768579Y-83658579D01*
X154783121Y-83645398D01*
X154798886Y-83633706D01*
X154815721Y-83623616D01*
X154833463Y-83615224D01*
X154851943Y-83608612D01*
X154870982Y-83603843D01*
X154890397Y-83600963D01*
X154910000Y-83600000D01*
X155410000Y-83600000D01*
X155429603Y-83600963D01*
X155429603Y-83600963D01*
G37*
D13*
X155160000Y-84000000D03*
D10*
G36*
X159324703Y-81400722D02*
G01*
X159339264Y-81402882D01*
X159353543Y-81406459D01*
X159367403Y-81411418D01*
X159380710Y-81417712D01*
X159393336Y-81425280D01*
X159405159Y-81434048D01*
X159416066Y-81443934D01*
X159425952Y-81454841D01*
X159434720Y-81466664D01*
X159442288Y-81479290D01*
X159448582Y-81492597D01*
X159453541Y-81506457D01*
X159457118Y-81520736D01*
X159459278Y-81535297D01*
X159460000Y-81550000D01*
X159460000Y-82450000D01*
X159459278Y-82464703D01*
X159457118Y-82479264D01*
X159453541Y-82493543D01*
X159448582Y-82507403D01*
X159442288Y-82520710D01*
X159434720Y-82533336D01*
X159425952Y-82545159D01*
X159416066Y-82556066D01*
X159405159Y-82565952D01*
X159393336Y-82574720D01*
X159380710Y-82582288D01*
X159367403Y-82588582D01*
X159353543Y-82593541D01*
X159339264Y-82597118D01*
X159324703Y-82599278D01*
X159310000Y-82600000D01*
X159010000Y-82600000D01*
X158995297Y-82599278D01*
X158980736Y-82597118D01*
X158966457Y-82593541D01*
X158952597Y-82588582D01*
X158939290Y-82582288D01*
X158926664Y-82574720D01*
X158914841Y-82565952D01*
X158903934Y-82556066D01*
X158894048Y-82545159D01*
X158885280Y-82533336D01*
X158877712Y-82520710D01*
X158871418Y-82507403D01*
X158866459Y-82493543D01*
X158862882Y-82479264D01*
X158860722Y-82464703D01*
X158860000Y-82450000D01*
X158860000Y-81550000D01*
X158860722Y-81535297D01*
X158862882Y-81520736D01*
X158866459Y-81506457D01*
X158871418Y-81492597D01*
X158877712Y-81479290D01*
X158885280Y-81466664D01*
X158894048Y-81454841D01*
X158903934Y-81443934D01*
X158914841Y-81434048D01*
X158926664Y-81425280D01*
X158939290Y-81417712D01*
X158952597Y-81411418D01*
X158966457Y-81406459D01*
X158980736Y-81402882D01*
X158995297Y-81400722D01*
X159010000Y-81400000D01*
X159310000Y-81400000D01*
X159324703Y-81400722D01*
X159324703Y-81400722D01*
G37*
D14*
X159160000Y-82000000D03*
D10*
G36*
X154724703Y-81400722D02*
G01*
X154739264Y-81402882D01*
X154753543Y-81406459D01*
X154767403Y-81411418D01*
X154780710Y-81417712D01*
X154793336Y-81425280D01*
X154805159Y-81434048D01*
X154816066Y-81443934D01*
X154825952Y-81454841D01*
X154834720Y-81466664D01*
X154842288Y-81479290D01*
X154848582Y-81492597D01*
X154853541Y-81506457D01*
X154857118Y-81520736D01*
X154859278Y-81535297D01*
X154860000Y-81550000D01*
X154860000Y-82450000D01*
X154859278Y-82464703D01*
X154857118Y-82479264D01*
X154853541Y-82493543D01*
X154848582Y-82507403D01*
X154842288Y-82520710D01*
X154834720Y-82533336D01*
X154825952Y-82545159D01*
X154816066Y-82556066D01*
X154805159Y-82565952D01*
X154793336Y-82574720D01*
X154780710Y-82582288D01*
X154767403Y-82588582D01*
X154753543Y-82593541D01*
X154739264Y-82597118D01*
X154724703Y-82599278D01*
X154710000Y-82600000D01*
X154410000Y-82600000D01*
X154395297Y-82599278D01*
X154380736Y-82597118D01*
X154366457Y-82593541D01*
X154352597Y-82588582D01*
X154339290Y-82582288D01*
X154326664Y-82574720D01*
X154314841Y-82565952D01*
X154303934Y-82556066D01*
X154294048Y-82545159D01*
X154285280Y-82533336D01*
X154277712Y-82520710D01*
X154271418Y-82507403D01*
X154266459Y-82493543D01*
X154262882Y-82479264D01*
X154260722Y-82464703D01*
X154260000Y-82450000D01*
X154260000Y-81550000D01*
X154260722Y-81535297D01*
X154262882Y-81520736D01*
X154266459Y-81506457D01*
X154271418Y-81492597D01*
X154277712Y-81479290D01*
X154285280Y-81466664D01*
X154294048Y-81454841D01*
X154303934Y-81443934D01*
X154314841Y-81434048D01*
X154326664Y-81425280D01*
X154339290Y-81417712D01*
X154352597Y-81411418D01*
X154366457Y-81406459D01*
X154380736Y-81402882D01*
X154395297Y-81400722D01*
X154410000Y-81400000D01*
X154710000Y-81400000D01*
X154724703Y-81400722D01*
X154724703Y-81400722D01*
G37*
D14*
X154560000Y-82000000D03*
D10*
G36*
X169747691Y-91453553D02*
G01*
X169768926Y-91456703D01*
X169789750Y-91461919D01*
X169809962Y-91469151D01*
X169829368Y-91478330D01*
X169847781Y-91489366D01*
X169865024Y-91502154D01*
X169880930Y-91516570D01*
X169895346Y-91532476D01*
X169908134Y-91549719D01*
X169919170Y-91568132D01*
X169928349Y-91587538D01*
X169935581Y-91607750D01*
X169940797Y-91628574D01*
X169943947Y-91649809D01*
X169945000Y-91671250D01*
X169945000Y-92108750D01*
X169943947Y-92130191D01*
X169940797Y-92151426D01*
X169935581Y-92172250D01*
X169928349Y-92192462D01*
X169919170Y-92211868D01*
X169908134Y-92230281D01*
X169895346Y-92247524D01*
X169880930Y-92263430D01*
X169865024Y-92277846D01*
X169847781Y-92290634D01*
X169829368Y-92301670D01*
X169809962Y-92310849D01*
X169789750Y-92318081D01*
X169768926Y-92323297D01*
X169747691Y-92326447D01*
X169726250Y-92327500D01*
X169213750Y-92327500D01*
X169192309Y-92326447D01*
X169171074Y-92323297D01*
X169150250Y-92318081D01*
X169130038Y-92310849D01*
X169110632Y-92301670D01*
X169092219Y-92290634D01*
X169074976Y-92277846D01*
X169059070Y-92263430D01*
X169044654Y-92247524D01*
X169031866Y-92230281D01*
X169020830Y-92211868D01*
X169011651Y-92192462D01*
X169004419Y-92172250D01*
X168999203Y-92151426D01*
X168996053Y-92130191D01*
X168995000Y-92108750D01*
X168995000Y-91671250D01*
X168996053Y-91649809D01*
X168999203Y-91628574D01*
X169004419Y-91607750D01*
X169011651Y-91587538D01*
X169020830Y-91568132D01*
X169031866Y-91549719D01*
X169044654Y-91532476D01*
X169059070Y-91516570D01*
X169074976Y-91502154D01*
X169092219Y-91489366D01*
X169110632Y-91478330D01*
X169130038Y-91469151D01*
X169150250Y-91461919D01*
X169171074Y-91456703D01*
X169192309Y-91453553D01*
X169213750Y-91452500D01*
X169726250Y-91452500D01*
X169747691Y-91453553D01*
X169747691Y-91453553D01*
G37*
D12*
X169470000Y-91890000D03*
D10*
G36*
X169747691Y-93028553D02*
G01*
X169768926Y-93031703D01*
X169789750Y-93036919D01*
X169809962Y-93044151D01*
X169829368Y-93053330D01*
X169847781Y-93064366D01*
X169865024Y-93077154D01*
X169880930Y-93091570D01*
X169895346Y-93107476D01*
X169908134Y-93124719D01*
X169919170Y-93143132D01*
X169928349Y-93162538D01*
X169935581Y-93182750D01*
X169940797Y-93203574D01*
X169943947Y-93224809D01*
X169945000Y-93246250D01*
X169945000Y-93683750D01*
X169943947Y-93705191D01*
X169940797Y-93726426D01*
X169935581Y-93747250D01*
X169928349Y-93767462D01*
X169919170Y-93786868D01*
X169908134Y-93805281D01*
X169895346Y-93822524D01*
X169880930Y-93838430D01*
X169865024Y-93852846D01*
X169847781Y-93865634D01*
X169829368Y-93876670D01*
X169809962Y-93885849D01*
X169789750Y-93893081D01*
X169768926Y-93898297D01*
X169747691Y-93901447D01*
X169726250Y-93902500D01*
X169213750Y-93902500D01*
X169192309Y-93901447D01*
X169171074Y-93898297D01*
X169150250Y-93893081D01*
X169130038Y-93885849D01*
X169110632Y-93876670D01*
X169092219Y-93865634D01*
X169074976Y-93852846D01*
X169059070Y-93838430D01*
X169044654Y-93822524D01*
X169031866Y-93805281D01*
X169020830Y-93786868D01*
X169011651Y-93767462D01*
X169004419Y-93747250D01*
X168999203Y-93726426D01*
X168996053Y-93705191D01*
X168995000Y-93683750D01*
X168995000Y-93246250D01*
X168996053Y-93224809D01*
X168999203Y-93203574D01*
X169004419Y-93182750D01*
X169011651Y-93162538D01*
X169020830Y-93143132D01*
X169031866Y-93124719D01*
X169044654Y-93107476D01*
X169059070Y-93091570D01*
X169074976Y-93077154D01*
X169092219Y-93064366D01*
X169110632Y-93053330D01*
X169130038Y-93044151D01*
X169150250Y-93036919D01*
X169171074Y-93031703D01*
X169192309Y-93028553D01*
X169213750Y-93027500D01*
X169726250Y-93027500D01*
X169747691Y-93028553D01*
X169747691Y-93028553D01*
G37*
D12*
X169470000Y-93465000D03*
D10*
G36*
X151500191Y-83976053D02*
G01*
X151521426Y-83979203D01*
X151542250Y-83984419D01*
X151562462Y-83991651D01*
X151581868Y-84000830D01*
X151600281Y-84011866D01*
X151617524Y-84024654D01*
X151633430Y-84039070D01*
X151647846Y-84054976D01*
X151660634Y-84072219D01*
X151671670Y-84090632D01*
X151680849Y-84110038D01*
X151688081Y-84130250D01*
X151693297Y-84151074D01*
X151696447Y-84172309D01*
X151697500Y-84193750D01*
X151697500Y-84706250D01*
X151696447Y-84727691D01*
X151693297Y-84748926D01*
X151688081Y-84769750D01*
X151680849Y-84789962D01*
X151671670Y-84809368D01*
X151660634Y-84827781D01*
X151647846Y-84845024D01*
X151633430Y-84860930D01*
X151617524Y-84875346D01*
X151600281Y-84888134D01*
X151581868Y-84899170D01*
X151562462Y-84908349D01*
X151542250Y-84915581D01*
X151521426Y-84920797D01*
X151500191Y-84923947D01*
X151478750Y-84925000D01*
X151041250Y-84925000D01*
X151019809Y-84923947D01*
X150998574Y-84920797D01*
X150977750Y-84915581D01*
X150957538Y-84908349D01*
X150938132Y-84899170D01*
X150919719Y-84888134D01*
X150902476Y-84875346D01*
X150886570Y-84860930D01*
X150872154Y-84845024D01*
X150859366Y-84827781D01*
X150848330Y-84809368D01*
X150839151Y-84789962D01*
X150831919Y-84769750D01*
X150826703Y-84748926D01*
X150823553Y-84727691D01*
X150822500Y-84706250D01*
X150822500Y-84193750D01*
X150823553Y-84172309D01*
X150826703Y-84151074D01*
X150831919Y-84130250D01*
X150839151Y-84110038D01*
X150848330Y-84090632D01*
X150859366Y-84072219D01*
X150872154Y-84054976D01*
X150886570Y-84039070D01*
X150902476Y-84024654D01*
X150919719Y-84011866D01*
X150938132Y-84000830D01*
X150957538Y-83991651D01*
X150977750Y-83984419D01*
X150998574Y-83979203D01*
X151019809Y-83976053D01*
X151041250Y-83975000D01*
X151478750Y-83975000D01*
X151500191Y-83976053D01*
X151500191Y-83976053D01*
G37*
D12*
X151260000Y-84450000D03*
D10*
G36*
X149925191Y-83976053D02*
G01*
X149946426Y-83979203D01*
X149967250Y-83984419D01*
X149987462Y-83991651D01*
X150006868Y-84000830D01*
X150025281Y-84011866D01*
X150042524Y-84024654D01*
X150058430Y-84039070D01*
X150072846Y-84054976D01*
X150085634Y-84072219D01*
X150096670Y-84090632D01*
X150105849Y-84110038D01*
X150113081Y-84130250D01*
X150118297Y-84151074D01*
X150121447Y-84172309D01*
X150122500Y-84193750D01*
X150122500Y-84706250D01*
X150121447Y-84727691D01*
X150118297Y-84748926D01*
X150113081Y-84769750D01*
X150105849Y-84789962D01*
X150096670Y-84809368D01*
X150085634Y-84827781D01*
X150072846Y-84845024D01*
X150058430Y-84860930D01*
X150042524Y-84875346D01*
X150025281Y-84888134D01*
X150006868Y-84899170D01*
X149987462Y-84908349D01*
X149967250Y-84915581D01*
X149946426Y-84920797D01*
X149925191Y-84923947D01*
X149903750Y-84925000D01*
X149466250Y-84925000D01*
X149444809Y-84923947D01*
X149423574Y-84920797D01*
X149402750Y-84915581D01*
X149382538Y-84908349D01*
X149363132Y-84899170D01*
X149344719Y-84888134D01*
X149327476Y-84875346D01*
X149311570Y-84860930D01*
X149297154Y-84845024D01*
X149284366Y-84827781D01*
X149273330Y-84809368D01*
X149264151Y-84789962D01*
X149256919Y-84769750D01*
X149251703Y-84748926D01*
X149248553Y-84727691D01*
X149247500Y-84706250D01*
X149247500Y-84193750D01*
X149248553Y-84172309D01*
X149251703Y-84151074D01*
X149256919Y-84130250D01*
X149264151Y-84110038D01*
X149273330Y-84090632D01*
X149284366Y-84072219D01*
X149297154Y-84054976D01*
X149311570Y-84039070D01*
X149327476Y-84024654D01*
X149344719Y-84011866D01*
X149363132Y-84000830D01*
X149382538Y-83991651D01*
X149402750Y-83984419D01*
X149423574Y-83979203D01*
X149444809Y-83976053D01*
X149466250Y-83975000D01*
X149903750Y-83975000D01*
X149925191Y-83976053D01*
X149925191Y-83976053D01*
G37*
D12*
X149685000Y-84450000D03*
D10*
G36*
X168645191Y-87406053D02*
G01*
X168666426Y-87409203D01*
X168687250Y-87414419D01*
X168707462Y-87421651D01*
X168726868Y-87430830D01*
X168745281Y-87441866D01*
X168762524Y-87454654D01*
X168778430Y-87469070D01*
X168792846Y-87484976D01*
X168805634Y-87502219D01*
X168816670Y-87520632D01*
X168825849Y-87540038D01*
X168833081Y-87560250D01*
X168838297Y-87581074D01*
X168841447Y-87602309D01*
X168842500Y-87623750D01*
X168842500Y-88136250D01*
X168841447Y-88157691D01*
X168838297Y-88178926D01*
X168833081Y-88199750D01*
X168825849Y-88219962D01*
X168816670Y-88239368D01*
X168805634Y-88257781D01*
X168792846Y-88275024D01*
X168778430Y-88290930D01*
X168762524Y-88305346D01*
X168745281Y-88318134D01*
X168726868Y-88329170D01*
X168707462Y-88338349D01*
X168687250Y-88345581D01*
X168666426Y-88350797D01*
X168645191Y-88353947D01*
X168623750Y-88355000D01*
X168186250Y-88355000D01*
X168164809Y-88353947D01*
X168143574Y-88350797D01*
X168122750Y-88345581D01*
X168102538Y-88338349D01*
X168083132Y-88329170D01*
X168064719Y-88318134D01*
X168047476Y-88305346D01*
X168031570Y-88290930D01*
X168017154Y-88275024D01*
X168004366Y-88257781D01*
X167993330Y-88239368D01*
X167984151Y-88219962D01*
X167976919Y-88199750D01*
X167971703Y-88178926D01*
X167968553Y-88157691D01*
X167967500Y-88136250D01*
X167967500Y-87623750D01*
X167968553Y-87602309D01*
X167971703Y-87581074D01*
X167976919Y-87560250D01*
X167984151Y-87540038D01*
X167993330Y-87520632D01*
X168004366Y-87502219D01*
X168017154Y-87484976D01*
X168031570Y-87469070D01*
X168047476Y-87454654D01*
X168064719Y-87441866D01*
X168083132Y-87430830D01*
X168102538Y-87421651D01*
X168122750Y-87414419D01*
X168143574Y-87409203D01*
X168164809Y-87406053D01*
X168186250Y-87405000D01*
X168623750Y-87405000D01*
X168645191Y-87406053D01*
X168645191Y-87406053D01*
G37*
D12*
X168405000Y-87880000D03*
D10*
G36*
X167070191Y-87406053D02*
G01*
X167091426Y-87409203D01*
X167112250Y-87414419D01*
X167132462Y-87421651D01*
X167151868Y-87430830D01*
X167170281Y-87441866D01*
X167187524Y-87454654D01*
X167203430Y-87469070D01*
X167217846Y-87484976D01*
X167230634Y-87502219D01*
X167241670Y-87520632D01*
X167250849Y-87540038D01*
X167258081Y-87560250D01*
X167263297Y-87581074D01*
X167266447Y-87602309D01*
X167267500Y-87623750D01*
X167267500Y-88136250D01*
X167266447Y-88157691D01*
X167263297Y-88178926D01*
X167258081Y-88199750D01*
X167250849Y-88219962D01*
X167241670Y-88239368D01*
X167230634Y-88257781D01*
X167217846Y-88275024D01*
X167203430Y-88290930D01*
X167187524Y-88305346D01*
X167170281Y-88318134D01*
X167151868Y-88329170D01*
X167132462Y-88338349D01*
X167112250Y-88345581D01*
X167091426Y-88350797D01*
X167070191Y-88353947D01*
X167048750Y-88355000D01*
X166611250Y-88355000D01*
X166589809Y-88353947D01*
X166568574Y-88350797D01*
X166547750Y-88345581D01*
X166527538Y-88338349D01*
X166508132Y-88329170D01*
X166489719Y-88318134D01*
X166472476Y-88305346D01*
X166456570Y-88290930D01*
X166442154Y-88275024D01*
X166429366Y-88257781D01*
X166418330Y-88239368D01*
X166409151Y-88219962D01*
X166401919Y-88199750D01*
X166396703Y-88178926D01*
X166393553Y-88157691D01*
X166392500Y-88136250D01*
X166392500Y-87623750D01*
X166393553Y-87602309D01*
X166396703Y-87581074D01*
X166401919Y-87560250D01*
X166409151Y-87540038D01*
X166418330Y-87520632D01*
X166429366Y-87502219D01*
X166442154Y-87484976D01*
X166456570Y-87469070D01*
X166472476Y-87454654D01*
X166489719Y-87441866D01*
X166508132Y-87430830D01*
X166527538Y-87421651D01*
X166547750Y-87414419D01*
X166568574Y-87409203D01*
X166589809Y-87406053D01*
X166611250Y-87405000D01*
X167048750Y-87405000D01*
X167070191Y-87406053D01*
X167070191Y-87406053D01*
G37*
D12*
X166830000Y-87880000D03*
D10*
G36*
X144257691Y-94373553D02*
G01*
X144278926Y-94376703D01*
X144299750Y-94381919D01*
X144319962Y-94389151D01*
X144339368Y-94398330D01*
X144357781Y-94409366D01*
X144375024Y-94422154D01*
X144390930Y-94436570D01*
X144405346Y-94452476D01*
X144418134Y-94469719D01*
X144429170Y-94488132D01*
X144438349Y-94507538D01*
X144445581Y-94527750D01*
X144450797Y-94548574D01*
X144453947Y-94569809D01*
X144455000Y-94591250D01*
X144455000Y-95028750D01*
X144453947Y-95050191D01*
X144450797Y-95071426D01*
X144445581Y-95092250D01*
X144438349Y-95112462D01*
X144429170Y-95131868D01*
X144418134Y-95150281D01*
X144405346Y-95167524D01*
X144390930Y-95183430D01*
X144375024Y-95197846D01*
X144357781Y-95210634D01*
X144339368Y-95221670D01*
X144319962Y-95230849D01*
X144299750Y-95238081D01*
X144278926Y-95243297D01*
X144257691Y-95246447D01*
X144236250Y-95247500D01*
X143723750Y-95247500D01*
X143702309Y-95246447D01*
X143681074Y-95243297D01*
X143660250Y-95238081D01*
X143640038Y-95230849D01*
X143620632Y-95221670D01*
X143602219Y-95210634D01*
X143584976Y-95197846D01*
X143569070Y-95183430D01*
X143554654Y-95167524D01*
X143541866Y-95150281D01*
X143530830Y-95131868D01*
X143521651Y-95112462D01*
X143514419Y-95092250D01*
X143509203Y-95071426D01*
X143506053Y-95050191D01*
X143505000Y-95028750D01*
X143505000Y-94591250D01*
X143506053Y-94569809D01*
X143509203Y-94548574D01*
X143514419Y-94527750D01*
X143521651Y-94507538D01*
X143530830Y-94488132D01*
X143541866Y-94469719D01*
X143554654Y-94452476D01*
X143569070Y-94436570D01*
X143584976Y-94422154D01*
X143602219Y-94409366D01*
X143620632Y-94398330D01*
X143640038Y-94389151D01*
X143660250Y-94381919D01*
X143681074Y-94376703D01*
X143702309Y-94373553D01*
X143723750Y-94372500D01*
X144236250Y-94372500D01*
X144257691Y-94373553D01*
X144257691Y-94373553D01*
G37*
D12*
X143980000Y-94810000D03*
D10*
G36*
X144257691Y-95948553D02*
G01*
X144278926Y-95951703D01*
X144299750Y-95956919D01*
X144319962Y-95964151D01*
X144339368Y-95973330D01*
X144357781Y-95984366D01*
X144375024Y-95997154D01*
X144390930Y-96011570D01*
X144405346Y-96027476D01*
X144418134Y-96044719D01*
X144429170Y-96063132D01*
X144438349Y-96082538D01*
X144445581Y-96102750D01*
X144450797Y-96123574D01*
X144453947Y-96144809D01*
X144455000Y-96166250D01*
X144455000Y-96603750D01*
X144453947Y-96625191D01*
X144450797Y-96646426D01*
X144445581Y-96667250D01*
X144438349Y-96687462D01*
X144429170Y-96706868D01*
X144418134Y-96725281D01*
X144405346Y-96742524D01*
X144390930Y-96758430D01*
X144375024Y-96772846D01*
X144357781Y-96785634D01*
X144339368Y-96796670D01*
X144319962Y-96805849D01*
X144299750Y-96813081D01*
X144278926Y-96818297D01*
X144257691Y-96821447D01*
X144236250Y-96822500D01*
X143723750Y-96822500D01*
X143702309Y-96821447D01*
X143681074Y-96818297D01*
X143660250Y-96813081D01*
X143640038Y-96805849D01*
X143620632Y-96796670D01*
X143602219Y-96785634D01*
X143584976Y-96772846D01*
X143569070Y-96758430D01*
X143554654Y-96742524D01*
X143541866Y-96725281D01*
X143530830Y-96706868D01*
X143521651Y-96687462D01*
X143514419Y-96667250D01*
X143509203Y-96646426D01*
X143506053Y-96625191D01*
X143505000Y-96603750D01*
X143505000Y-96166250D01*
X143506053Y-96144809D01*
X143509203Y-96123574D01*
X143514419Y-96102750D01*
X143521651Y-96082538D01*
X143530830Y-96063132D01*
X143541866Y-96044719D01*
X143554654Y-96027476D01*
X143569070Y-96011570D01*
X143584976Y-95997154D01*
X143602219Y-95984366D01*
X143620632Y-95973330D01*
X143640038Y-95964151D01*
X143660250Y-95956919D01*
X143681074Y-95951703D01*
X143702309Y-95948553D01*
X143723750Y-95947500D01*
X144236250Y-95947500D01*
X144257691Y-95948553D01*
X144257691Y-95948553D01*
G37*
D12*
X143980000Y-96385000D03*
D10*
G36*
X169957691Y-101623553D02*
G01*
X169978926Y-101626703D01*
X169999750Y-101631919D01*
X170019962Y-101639151D01*
X170039368Y-101648330D01*
X170057781Y-101659366D01*
X170075024Y-101672154D01*
X170090930Y-101686570D01*
X170105346Y-101702476D01*
X170118134Y-101719719D01*
X170129170Y-101738132D01*
X170138349Y-101757538D01*
X170145581Y-101777750D01*
X170150797Y-101798574D01*
X170153947Y-101819809D01*
X170155000Y-101841250D01*
X170155000Y-102278750D01*
X170153947Y-102300191D01*
X170150797Y-102321426D01*
X170145581Y-102342250D01*
X170138349Y-102362462D01*
X170129170Y-102381868D01*
X170118134Y-102400281D01*
X170105346Y-102417524D01*
X170090930Y-102433430D01*
X170075024Y-102447846D01*
X170057781Y-102460634D01*
X170039368Y-102471670D01*
X170019962Y-102480849D01*
X169999750Y-102488081D01*
X169978926Y-102493297D01*
X169957691Y-102496447D01*
X169936250Y-102497500D01*
X169423750Y-102497500D01*
X169402309Y-102496447D01*
X169381074Y-102493297D01*
X169360250Y-102488081D01*
X169340038Y-102480849D01*
X169320632Y-102471670D01*
X169302219Y-102460634D01*
X169284976Y-102447846D01*
X169269070Y-102433430D01*
X169254654Y-102417524D01*
X169241866Y-102400281D01*
X169230830Y-102381868D01*
X169221651Y-102362462D01*
X169214419Y-102342250D01*
X169209203Y-102321426D01*
X169206053Y-102300191D01*
X169205000Y-102278750D01*
X169205000Y-101841250D01*
X169206053Y-101819809D01*
X169209203Y-101798574D01*
X169214419Y-101777750D01*
X169221651Y-101757538D01*
X169230830Y-101738132D01*
X169241866Y-101719719D01*
X169254654Y-101702476D01*
X169269070Y-101686570D01*
X169284976Y-101672154D01*
X169302219Y-101659366D01*
X169320632Y-101648330D01*
X169340038Y-101639151D01*
X169360250Y-101631919D01*
X169381074Y-101626703D01*
X169402309Y-101623553D01*
X169423750Y-101622500D01*
X169936250Y-101622500D01*
X169957691Y-101623553D01*
X169957691Y-101623553D01*
G37*
D12*
X169680000Y-102060000D03*
D10*
G36*
X169957691Y-103198553D02*
G01*
X169978926Y-103201703D01*
X169999750Y-103206919D01*
X170019962Y-103214151D01*
X170039368Y-103223330D01*
X170057781Y-103234366D01*
X170075024Y-103247154D01*
X170090930Y-103261570D01*
X170105346Y-103277476D01*
X170118134Y-103294719D01*
X170129170Y-103313132D01*
X170138349Y-103332538D01*
X170145581Y-103352750D01*
X170150797Y-103373574D01*
X170153947Y-103394809D01*
X170155000Y-103416250D01*
X170155000Y-103853750D01*
X170153947Y-103875191D01*
X170150797Y-103896426D01*
X170145581Y-103917250D01*
X170138349Y-103937462D01*
X170129170Y-103956868D01*
X170118134Y-103975281D01*
X170105346Y-103992524D01*
X170090930Y-104008430D01*
X170075024Y-104022846D01*
X170057781Y-104035634D01*
X170039368Y-104046670D01*
X170019962Y-104055849D01*
X169999750Y-104063081D01*
X169978926Y-104068297D01*
X169957691Y-104071447D01*
X169936250Y-104072500D01*
X169423750Y-104072500D01*
X169402309Y-104071447D01*
X169381074Y-104068297D01*
X169360250Y-104063081D01*
X169340038Y-104055849D01*
X169320632Y-104046670D01*
X169302219Y-104035634D01*
X169284976Y-104022846D01*
X169269070Y-104008430D01*
X169254654Y-103992524D01*
X169241866Y-103975281D01*
X169230830Y-103956868D01*
X169221651Y-103937462D01*
X169214419Y-103917250D01*
X169209203Y-103896426D01*
X169206053Y-103875191D01*
X169205000Y-103853750D01*
X169205000Y-103416250D01*
X169206053Y-103394809D01*
X169209203Y-103373574D01*
X169214419Y-103352750D01*
X169221651Y-103332538D01*
X169230830Y-103313132D01*
X169241866Y-103294719D01*
X169254654Y-103277476D01*
X169269070Y-103261570D01*
X169284976Y-103247154D01*
X169302219Y-103234366D01*
X169320632Y-103223330D01*
X169340038Y-103214151D01*
X169360250Y-103206919D01*
X169381074Y-103201703D01*
X169402309Y-103198553D01*
X169423750Y-103197500D01*
X169936250Y-103197500D01*
X169957691Y-103198553D01*
X169957691Y-103198553D01*
G37*
D12*
X169680000Y-103635000D03*
D10*
G36*
X145781553Y-103882435D02*
G01*
X145791260Y-103883874D01*
X145800779Y-103886259D01*
X145810019Y-103889565D01*
X145818891Y-103893761D01*
X145827308Y-103898806D01*
X145835190Y-103904652D01*
X145842462Y-103911242D01*
X145983884Y-104052664D01*
X145990474Y-104059936D01*
X145996320Y-104067818D01*
X146001365Y-104076235D01*
X146005561Y-104085107D01*
X146008867Y-104094347D01*
X146011252Y-104103866D01*
X146012691Y-104113573D01*
X146013173Y-104123375D01*
X146012691Y-104133177D01*
X146011252Y-104142884D01*
X146008867Y-104152403D01*
X146005561Y-104161643D01*
X146001365Y-104170515D01*
X145996320Y-104178932D01*
X145990474Y-104186814D01*
X145983884Y-104194086D01*
X145559620Y-104618350D01*
X145552348Y-104624940D01*
X145544466Y-104630786D01*
X145536049Y-104635831D01*
X145527177Y-104640027D01*
X145517937Y-104643333D01*
X145508418Y-104645718D01*
X145498711Y-104647157D01*
X145488909Y-104647639D01*
X145479107Y-104647157D01*
X145469400Y-104645718D01*
X145459881Y-104643333D01*
X145450641Y-104640027D01*
X145441769Y-104635831D01*
X145433352Y-104630786D01*
X145425470Y-104624940D01*
X145418198Y-104618350D01*
X145276776Y-104476928D01*
X145270186Y-104469656D01*
X145264340Y-104461774D01*
X145259295Y-104453357D01*
X145255099Y-104444485D01*
X145251793Y-104435245D01*
X145249408Y-104425726D01*
X145247969Y-104416019D01*
X145247487Y-104406217D01*
X145247969Y-104396415D01*
X145249408Y-104386708D01*
X145251793Y-104377189D01*
X145255099Y-104367949D01*
X145259295Y-104359077D01*
X145264340Y-104350660D01*
X145270186Y-104342778D01*
X145276776Y-104335506D01*
X145701040Y-103911242D01*
X145708312Y-103904652D01*
X145716194Y-103898806D01*
X145724611Y-103893761D01*
X145733483Y-103889565D01*
X145742723Y-103886259D01*
X145752242Y-103883874D01*
X145761949Y-103882435D01*
X145771751Y-103881953D01*
X145781553Y-103882435D01*
X145781553Y-103882435D01*
G37*
D15*
X145630330Y-104264796D03*
D10*
G36*
X148256427Y-106357309D02*
G01*
X148266134Y-106358748D01*
X148275653Y-106361133D01*
X148284893Y-106364439D01*
X148293765Y-106368635D01*
X148302182Y-106373680D01*
X148310064Y-106379526D01*
X148317336Y-106386116D01*
X148458758Y-106527538D01*
X148465348Y-106534810D01*
X148471194Y-106542692D01*
X148476239Y-106551109D01*
X148480435Y-106559981D01*
X148483741Y-106569221D01*
X148486126Y-106578740D01*
X148487565Y-106588447D01*
X148488047Y-106598249D01*
X148487565Y-106608051D01*
X148486126Y-106617758D01*
X148483741Y-106627277D01*
X148480435Y-106636517D01*
X148476239Y-106645389D01*
X148471194Y-106653806D01*
X148465348Y-106661688D01*
X148458758Y-106668960D01*
X148034494Y-107093224D01*
X148027222Y-107099814D01*
X148019340Y-107105660D01*
X148010923Y-107110705D01*
X148002051Y-107114901D01*
X147992811Y-107118207D01*
X147983292Y-107120592D01*
X147973585Y-107122031D01*
X147963783Y-107122513D01*
X147953981Y-107122031D01*
X147944274Y-107120592D01*
X147934755Y-107118207D01*
X147925515Y-107114901D01*
X147916643Y-107110705D01*
X147908226Y-107105660D01*
X147900344Y-107099814D01*
X147893072Y-107093224D01*
X147751650Y-106951802D01*
X147745060Y-106944530D01*
X147739214Y-106936648D01*
X147734169Y-106928231D01*
X147729973Y-106919359D01*
X147726667Y-106910119D01*
X147724282Y-106900600D01*
X147722843Y-106890893D01*
X147722361Y-106881091D01*
X147722843Y-106871289D01*
X147724282Y-106861582D01*
X147726667Y-106852063D01*
X147729973Y-106842823D01*
X147734169Y-106833951D01*
X147739214Y-106825534D01*
X147745060Y-106817652D01*
X147751650Y-106810380D01*
X148175914Y-106386116D01*
X148183186Y-106379526D01*
X148191068Y-106373680D01*
X148199485Y-106368635D01*
X148208357Y-106364439D01*
X148217597Y-106361133D01*
X148227116Y-106358748D01*
X148236823Y-106357309D01*
X148246625Y-106356827D01*
X148256427Y-106357309D01*
X148256427Y-106357309D01*
G37*
D15*
X148105204Y-106739670D03*
D10*
G36*
X144770250Y-106394628D02*
G01*
X144776317Y-106395528D01*
X144782267Y-106397018D01*
X144788042Y-106399085D01*
X144793586Y-106401707D01*
X144798847Y-106404860D01*
X144803774Y-106408514D01*
X144808318Y-106412633D01*
X144896707Y-106501022D01*
X144900826Y-106505566D01*
X144904480Y-106510493D01*
X144907633Y-106515754D01*
X144910255Y-106521298D01*
X144912322Y-106527073D01*
X144913812Y-106533023D01*
X144914712Y-106539090D01*
X144915013Y-106545216D01*
X144914712Y-106551342D01*
X144913812Y-106557409D01*
X144912322Y-106563359D01*
X144910255Y-106569134D01*
X144907633Y-106574678D01*
X144904480Y-106579939D01*
X144900826Y-106584866D01*
X144896707Y-106589410D01*
X144419410Y-107066707D01*
X144414866Y-107070826D01*
X144409939Y-107074480D01*
X144404678Y-107077633D01*
X144399134Y-107080255D01*
X144393359Y-107082322D01*
X144387409Y-107083812D01*
X144381342Y-107084712D01*
X144375216Y-107085013D01*
X144369090Y-107084712D01*
X144363023Y-107083812D01*
X144357073Y-107082322D01*
X144351298Y-107080255D01*
X144345754Y-107077633D01*
X144340493Y-107074480D01*
X144335566Y-107070826D01*
X144331022Y-107066707D01*
X144242633Y-106978318D01*
X144238514Y-106973774D01*
X144234860Y-106968847D01*
X144231707Y-106963586D01*
X144229085Y-106958042D01*
X144227018Y-106952267D01*
X144225528Y-106946317D01*
X144224628Y-106940250D01*
X144224327Y-106934124D01*
X144224628Y-106927998D01*
X144225528Y-106921931D01*
X144227018Y-106915981D01*
X144229085Y-106910206D01*
X144231707Y-106904662D01*
X144234860Y-106899401D01*
X144238514Y-106894474D01*
X144242633Y-106889930D01*
X144719930Y-106412633D01*
X144724474Y-106408514D01*
X144729401Y-106404860D01*
X144734662Y-106401707D01*
X144740206Y-106399085D01*
X144745981Y-106397018D01*
X144751931Y-106395528D01*
X144757998Y-106394628D01*
X144764124Y-106394327D01*
X144770250Y-106394628D01*
X144770250Y-106394628D01*
G37*
D16*
X144569670Y-106739670D03*
D10*
G36*
X145123803Y-106748181D02*
G01*
X145129870Y-106749081D01*
X145135820Y-106750571D01*
X145141595Y-106752638D01*
X145147139Y-106755260D01*
X145152400Y-106758413D01*
X145157327Y-106762067D01*
X145161871Y-106766186D01*
X145250260Y-106854575D01*
X145254379Y-106859119D01*
X145258033Y-106864046D01*
X145261186Y-106869307D01*
X145263808Y-106874851D01*
X145265875Y-106880626D01*
X145267365Y-106886576D01*
X145268265Y-106892643D01*
X145268566Y-106898769D01*
X145268265Y-106904895D01*
X145267365Y-106910962D01*
X145265875Y-106916912D01*
X145263808Y-106922687D01*
X145261186Y-106928231D01*
X145258033Y-106933492D01*
X145254379Y-106938419D01*
X145250260Y-106942963D01*
X144772963Y-107420260D01*
X144768419Y-107424379D01*
X144763492Y-107428033D01*
X144758231Y-107431186D01*
X144752687Y-107433808D01*
X144746912Y-107435875D01*
X144740962Y-107437365D01*
X144734895Y-107438265D01*
X144728769Y-107438566D01*
X144722643Y-107438265D01*
X144716576Y-107437365D01*
X144710626Y-107435875D01*
X144704851Y-107433808D01*
X144699307Y-107431186D01*
X144694046Y-107428033D01*
X144689119Y-107424379D01*
X144684575Y-107420260D01*
X144596186Y-107331871D01*
X144592067Y-107327327D01*
X144588413Y-107322400D01*
X144585260Y-107317139D01*
X144582638Y-107311595D01*
X144580571Y-107305820D01*
X144579081Y-107299870D01*
X144578181Y-107293803D01*
X144577880Y-107287677D01*
X144578181Y-107281551D01*
X144579081Y-107275484D01*
X144580571Y-107269534D01*
X144582638Y-107263759D01*
X144585260Y-107258215D01*
X144588413Y-107252954D01*
X144592067Y-107248027D01*
X144596186Y-107243483D01*
X145073483Y-106766186D01*
X145078027Y-106762067D01*
X145082954Y-106758413D01*
X145088215Y-106755260D01*
X145093759Y-106752638D01*
X145099534Y-106750571D01*
X145105484Y-106749081D01*
X145111551Y-106748181D01*
X145117677Y-106747880D01*
X145123803Y-106748181D01*
X145123803Y-106748181D01*
G37*
D16*
X144923223Y-107093223D03*
D10*
G36*
X145477357Y-107101735D02*
G01*
X145483424Y-107102635D01*
X145489374Y-107104125D01*
X145495149Y-107106192D01*
X145500693Y-107108814D01*
X145505954Y-107111967D01*
X145510881Y-107115621D01*
X145515425Y-107119740D01*
X145603814Y-107208129D01*
X145607933Y-107212673D01*
X145611587Y-107217600D01*
X145614740Y-107222861D01*
X145617362Y-107228405D01*
X145619429Y-107234180D01*
X145620919Y-107240130D01*
X145621819Y-107246197D01*
X145622120Y-107252323D01*
X145621819Y-107258449D01*
X145620919Y-107264516D01*
X145619429Y-107270466D01*
X145617362Y-107276241D01*
X145614740Y-107281785D01*
X145611587Y-107287046D01*
X145607933Y-107291973D01*
X145603814Y-107296517D01*
X145126517Y-107773814D01*
X145121973Y-107777933D01*
X145117046Y-107781587D01*
X145111785Y-107784740D01*
X145106241Y-107787362D01*
X145100466Y-107789429D01*
X145094516Y-107790919D01*
X145088449Y-107791819D01*
X145082323Y-107792120D01*
X145076197Y-107791819D01*
X145070130Y-107790919D01*
X145064180Y-107789429D01*
X145058405Y-107787362D01*
X145052861Y-107784740D01*
X145047600Y-107781587D01*
X145042673Y-107777933D01*
X145038129Y-107773814D01*
X144949740Y-107685425D01*
X144945621Y-107680881D01*
X144941967Y-107675954D01*
X144938814Y-107670693D01*
X144936192Y-107665149D01*
X144934125Y-107659374D01*
X144932635Y-107653424D01*
X144931735Y-107647357D01*
X144931434Y-107641231D01*
X144931735Y-107635105D01*
X144932635Y-107629038D01*
X144934125Y-107623088D01*
X144936192Y-107617313D01*
X144938814Y-107611769D01*
X144941967Y-107606508D01*
X144945621Y-107601581D01*
X144949740Y-107597037D01*
X145427037Y-107119740D01*
X145431581Y-107115621D01*
X145436508Y-107111967D01*
X145441769Y-107108814D01*
X145447313Y-107106192D01*
X145453088Y-107104125D01*
X145459038Y-107102635D01*
X145465105Y-107101735D01*
X145471231Y-107101434D01*
X145477357Y-107101735D01*
X145477357Y-107101735D01*
G37*
D16*
X145276777Y-107446777D03*
D10*
G36*
X145830910Y-107455288D02*
G01*
X145836977Y-107456188D01*
X145842927Y-107457678D01*
X145848702Y-107459745D01*
X145854246Y-107462367D01*
X145859507Y-107465520D01*
X145864434Y-107469174D01*
X145868978Y-107473293D01*
X145957367Y-107561682D01*
X145961486Y-107566226D01*
X145965140Y-107571153D01*
X145968293Y-107576414D01*
X145970915Y-107581958D01*
X145972982Y-107587733D01*
X145974472Y-107593683D01*
X145975372Y-107599750D01*
X145975673Y-107605876D01*
X145975372Y-107612002D01*
X145974472Y-107618069D01*
X145972982Y-107624019D01*
X145970915Y-107629794D01*
X145968293Y-107635338D01*
X145965140Y-107640599D01*
X145961486Y-107645526D01*
X145957367Y-107650070D01*
X145480070Y-108127367D01*
X145475526Y-108131486D01*
X145470599Y-108135140D01*
X145465338Y-108138293D01*
X145459794Y-108140915D01*
X145454019Y-108142982D01*
X145448069Y-108144472D01*
X145442002Y-108145372D01*
X145435876Y-108145673D01*
X145429750Y-108145372D01*
X145423683Y-108144472D01*
X145417733Y-108142982D01*
X145411958Y-108140915D01*
X145406414Y-108138293D01*
X145401153Y-108135140D01*
X145396226Y-108131486D01*
X145391682Y-108127367D01*
X145303293Y-108038978D01*
X145299174Y-108034434D01*
X145295520Y-108029507D01*
X145292367Y-108024246D01*
X145289745Y-108018702D01*
X145287678Y-108012927D01*
X145286188Y-108006977D01*
X145285288Y-108000910D01*
X145284987Y-107994784D01*
X145285288Y-107988658D01*
X145286188Y-107982591D01*
X145287678Y-107976641D01*
X145289745Y-107970866D01*
X145292367Y-107965322D01*
X145295520Y-107960061D01*
X145299174Y-107955134D01*
X145303293Y-107950590D01*
X145780590Y-107473293D01*
X145785134Y-107469174D01*
X145790061Y-107465520D01*
X145795322Y-107462367D01*
X145800866Y-107459745D01*
X145806641Y-107457678D01*
X145812591Y-107456188D01*
X145818658Y-107455288D01*
X145824784Y-107454987D01*
X145830910Y-107455288D01*
X145830910Y-107455288D01*
G37*
D16*
X145630330Y-107800330D03*
M02*
