%FSLAX45Y45*%
G04 Gerber Fmt 4.5, Leading zero omitted, Abs format (unit mm)*
G04 Created by KiCad (PCBNEW 5.1.2-f72e74a~84~ubuntu18.04.1) date 2019-07-25 17:33:19*
%MOMM*%
%LPD*%
G04 APERTURE LIST*
%ADD10C,0.200000*%
%ADD11C,0.300000*%
G04 APERTURE END LIST*
D10*
X14399212Y-10991970D02*
X14375532Y-10977170D01*
X16253306Y-10936350D02*
X16202485Y-10899430D01*
X16356768Y-8197370D02*
X16449212Y-8246520D01*
X15730621Y-10746110D02*
X15667803Y-10746110D01*
X16388416Y-8780121D02*
X16333343Y-8733910D01*
X16440131Y-8830063D02*
X16388416Y-8780121D01*
X16488236Y-8883489D02*
X16440131Y-8830063D01*
X16532499Y-8940142D02*
X16488236Y-8883489D01*
X16572701Y-8999744D02*
X16532499Y-8940142D01*
X14585252Y-11045320D02*
X14557402Y-11043370D01*
X14762771Y-10049086D02*
X14756861Y-10072791D01*
X14770321Y-10025852D02*
X14762771Y-10049086D01*
X14778414Y-10005818D02*
X14770321Y-10025852D01*
X14758260Y-9964498D02*
X14778414Y-10005818D01*
X14731329Y-9897840D02*
X14758260Y-9964498D01*
X16622703Y-8363540D02*
X16702912Y-8430840D01*
X15959684Y-8068350D02*
X16062093Y-8090120D01*
X14374792Y-8841353D02*
X14427142Y-8750682D01*
X14328892Y-8935456D02*
X14374792Y-8841353D01*
X14289672Y-9032531D02*
X14328892Y-8935456D01*
X14257322Y-9132105D02*
X14289672Y-9032531D01*
X16149212Y-10866140D02*
X16093745Y-10836640D01*
X15605137Y-10750490D02*
X15542930Y-10759230D01*
X16572701Y-10091376D02*
X16608647Y-10029116D01*
X16532499Y-10150978D02*
X16572701Y-10091376D01*
X16488236Y-10207631D02*
X16532499Y-10150978D01*
X16440131Y-10261057D02*
X16488236Y-10207631D01*
X16388416Y-10310999D02*
X16440131Y-10261057D01*
X15503495Y-8085720D02*
X15524214Y-8098670D01*
X15483732Y-8071360D02*
X15503495Y-8085720D01*
X15474200Y-8063370D02*
X15483732Y-8071360D01*
X15438740Y-8068350D02*
X15474200Y-8063370D01*
X14475602Y-11025980D02*
X14449372Y-11016430D01*
X14502442Y-11033680D02*
X14475602Y-11025980D01*
X14529752Y-11039480D02*
X14502442Y-11033680D01*
X14199212Y-10645560D02*
X14199212Y-9545560D01*
X14200192Y-10673460D02*
X14199212Y-10645560D01*
X14203102Y-10701230D02*
X14200192Y-10673460D01*
X17022892Y-10977170D02*
X16999212Y-10991970D01*
X15380926Y-8565973D02*
X15313368Y-8590561D01*
X15450033Y-8546157D02*
X15380926Y-8565973D01*
X15520355Y-8531210D02*
X15450033Y-8546157D01*
X15591549Y-8521200D02*
X15520355Y-8531210D01*
X15977326Y-10789610D02*
X15916941Y-10772290D01*
X17023632Y-8841353D02*
X17069532Y-8935456D01*
X15421098Y-10789610D02*
X15362068Y-10811090D01*
X16949052Y-11016430D02*
X16922822Y-11025980D01*
X15667803Y-10746110D02*
X15605137Y-10750490D01*
X14275602Y-10880670D02*
X14259992Y-10857530D01*
X14292792Y-10902670D02*
X14275602Y-10880670D01*
X14311482Y-10923420D02*
X14292792Y-10902670D01*
X15029342Y-11045320D02*
X14585252Y-11045320D01*
X16778222Y-8503570D02*
X16848282Y-8581380D01*
X14945783Y-10460137D02*
X14968101Y-10470073D01*
X14924214Y-10448668D02*
X14945783Y-10460137D01*
X14903495Y-10435723D02*
X14924214Y-10448668D01*
X14883732Y-10421363D02*
X14903495Y-10435723D01*
X14865017Y-10405660D02*
X14883732Y-10421363D01*
X17105632Y-10902670D02*
X17086942Y-10923420D01*
X17122822Y-10880670D02*
X17105632Y-10902670D01*
X17199212Y-9545560D02*
X17199212Y-10645560D01*
X16062093Y-8090120D02*
X16162737Y-8118980D01*
X15663267Y-8516190D02*
X15591549Y-8521200D01*
X15924224Y-8063370D02*
X15959684Y-8068350D01*
X15914692Y-8071360D02*
X15924224Y-8063370D01*
X15894929Y-8085720D02*
X15914692Y-8071360D01*
X14847444Y-10388689D02*
X14865017Y-10405660D01*
X14831097Y-10370536D02*
X14847444Y-10388689D01*
X14816056Y-10351284D02*
X14831097Y-10370536D01*
X14802397Y-10331031D02*
X14816056Y-10351284D01*
X14790182Y-10309874D02*
X14802397Y-10331031D01*
X16719192Y-9402213D02*
X16706702Y-9331412D01*
X16726702Y-9473711D02*
X16719192Y-9402213D01*
X16729212Y-9545560D02*
X16726702Y-9473711D01*
X16726702Y-9617409D02*
X16729212Y-9545560D01*
X16719192Y-9688907D02*
X16726702Y-9617409D01*
X14207952Y-10728720D02*
X14203102Y-10701230D01*
X14214712Y-10755810D02*
X14207952Y-10728720D01*
X14223332Y-10782370D02*
X14214712Y-10755810D01*
X15304679Y-10836640D02*
X15249212Y-10866140D01*
X15051808Y-11020370D02*
X15029342Y-11045320D01*
X15183886Y-10485163D02*
X15207369Y-10478429D01*
X15159989Y-10490242D02*
X15183886Y-10485163D01*
X15135798Y-10493642D02*
X15159989Y-10490242D01*
X15111428Y-10495346D02*
X15135798Y-10493642D01*
X15086997Y-10495346D02*
X15111428Y-10495346D01*
X17195562Y-9440926D02*
X17199212Y-9545560D01*
X17190472Y-10728720D02*
X17183712Y-10755810D01*
X17138432Y-10857530D02*
X17122822Y-10880670D01*
X17152392Y-10833350D02*
X17138432Y-10857530D01*
X14423862Y-11005080D02*
X14399212Y-10991970D01*
X15123245Y-8691652D02*
X15065081Y-8733910D01*
X15184213Y-8653554D02*
X15123245Y-8691652D01*
X15247691Y-8619803D02*
X15184213Y-8653554D01*
X15313368Y-8590561D02*
X15247691Y-8619803D01*
X15783885Y-8135160D02*
X15807368Y-8128430D01*
X15759988Y-8140240D02*
X15783885Y-8135160D01*
X15735797Y-8143640D02*
X15759988Y-8140240D01*
X15711427Y-8145350D02*
X15735797Y-8143640D01*
X16706702Y-9759708D02*
X16719192Y-9688907D01*
X16689311Y-9829465D02*
X16706702Y-9759708D01*
X16667095Y-9897840D02*
X16689311Y-9829465D01*
X16640164Y-9964498D02*
X16667095Y-9897840D01*
X16608647Y-10029116D02*
X16640164Y-9964498D01*
X17164632Y-10808250D02*
X17152392Y-10833350D01*
X17166432Y-9233693D02*
X17184612Y-9336801D01*
X17175092Y-10782370D02*
X17164632Y-10808250D01*
X15062628Y-10493642D02*
X15086997Y-10495346D01*
X15038436Y-10490242D02*
X15062628Y-10493642D01*
X15014539Y-10485163D02*
X15038436Y-10490242D01*
X14991056Y-10478429D02*
X15014539Y-10485163D01*
X14968101Y-10470073D02*
X14991056Y-10478429D01*
X17066862Y-10942820D02*
X17045472Y-10960760D01*
X14709113Y-9829465D02*
X14731329Y-9897840D01*
X14691722Y-9759708D02*
X14709113Y-9829465D01*
X14679232Y-9688907D02*
X14691722Y-9759708D01*
X14671722Y-9617409D02*
X14679232Y-9688907D01*
X14669212Y-9545560D02*
X14671722Y-9617409D01*
X14750065Y-10169974D02*
X14752619Y-10194269D01*
X14749212Y-10145560D02*
X14750065Y-10169974D01*
X14750065Y-10121144D02*
X14749212Y-10145560D01*
X14752619Y-10096849D02*
X14750065Y-10121144D01*
X14756861Y-10072791D02*
X14752619Y-10096849D01*
X16162737Y-8118980D02*
X16261121Y-8154790D01*
X15663267Y-10574930D02*
X15735157Y-10574930D01*
X15591549Y-10569920D02*
X15663267Y-10574930D01*
X15520355Y-10559910D02*
X15591549Y-10569920D01*
X15450033Y-10544963D02*
X15520355Y-10559910D01*
X15380926Y-10525147D02*
X15450033Y-10544963D01*
X14779472Y-10287917D02*
X14790182Y-10309874D01*
X14770321Y-10265267D02*
X14779472Y-10287917D01*
X14762771Y-10242032D02*
X14770321Y-10265267D01*
X14756861Y-10218328D02*
X14762771Y-10242032D01*
X14752619Y-10194269D02*
X14756861Y-10218328D01*
X16369082Y-11045320D02*
X16346616Y-11020370D01*
X16974562Y-11005080D02*
X16949052Y-11016430D01*
X14233792Y-10808250D02*
X14223332Y-10782370D01*
X14246032Y-10833350D02*
X14233792Y-10808250D01*
X14259992Y-10857530D02*
X14246032Y-10833350D01*
X15735157Y-8516190D02*
X15663267Y-8516190D01*
X15806875Y-8521200D02*
X15735157Y-8516190D01*
X15878069Y-8531210D02*
X15806875Y-8521200D01*
X15948391Y-8546157D02*
X15878069Y-8531210D01*
X16017498Y-8565973D02*
X15948391Y-8546157D01*
X15855494Y-10759230D02*
X15793287Y-10750490D01*
X16017498Y-10525147D02*
X16085056Y-10500559D01*
X15948391Y-10544963D02*
X16017498Y-10525147D01*
X15878069Y-10559910D02*
X15948391Y-10544963D01*
X15806875Y-10569920D02*
X15878069Y-10559910D01*
X15735157Y-10574930D02*
X15806875Y-10569920D01*
X16702912Y-8430840D02*
X16778222Y-8503570D01*
X15195939Y-10899430D02*
X15145118Y-10936350D01*
X16868672Y-11039480D02*
X16841022Y-11043370D01*
X16895982Y-11033680D02*
X16868672Y-11039480D01*
X16093745Y-10836640D02*
X16036356Y-10811090D01*
X15096995Y-10976730D02*
X15051808Y-11020370D01*
X16608647Y-9062004D02*
X16572701Y-8999744D01*
X16640164Y-9126622D02*
X16608647Y-9062004D01*
X16667095Y-9193280D02*
X16640164Y-9126622D01*
X16689311Y-9261655D02*
X16667095Y-9193280D01*
X16706702Y-9331412D02*
X16689311Y-9261655D01*
X14910188Y-8883489D02*
X14865925Y-8940142D01*
X14958293Y-8830063D02*
X14910188Y-8883489D01*
X15010008Y-8780121D02*
X14958293Y-8830063D01*
X15065081Y-8733910D02*
X15010008Y-8780121D01*
X14620202Y-8503570D02*
X14695512Y-8430840D01*
X14550142Y-8581380D02*
X14620202Y-8503570D01*
X14485682Y-8663883D02*
X14550142Y-8581380D01*
X14427142Y-8750682D02*
X14485682Y-8663883D01*
X15481483Y-10772290D02*
X15421098Y-10789610D01*
X15336331Y-8090120D02*
X15438740Y-8068350D01*
X15235687Y-8118980D02*
X15336331Y-8090120D01*
X15137303Y-8154790D02*
X15235687Y-8118980D01*
X15041656Y-8197370D02*
X15137303Y-8154790D01*
X14231992Y-9233693D02*
X14257322Y-9132105D01*
X14213812Y-9336801D02*
X14231992Y-9233693D01*
X14202862Y-9440926D02*
X14213812Y-9336801D01*
X14199212Y-9545560D02*
X14202862Y-9440926D01*
X16346616Y-11020370D02*
X16301429Y-10976730D01*
X15874212Y-8098670D02*
X15894929Y-8085720D01*
X15852641Y-8110140D02*
X15874212Y-8098670D01*
X15830323Y-8120070D02*
X15852641Y-8110140D01*
X15807368Y-8128430D02*
X15830323Y-8120070D01*
X16085056Y-8590561D02*
X16017498Y-8565973D01*
X16150733Y-8619803D02*
X16085056Y-8590561D01*
X16214211Y-8653554D02*
X16150733Y-8619803D01*
X16275179Y-8691652D02*
X16214211Y-8653554D01*
X16333343Y-8733910D02*
X16275179Y-8691652D01*
X16999212Y-10991970D02*
X16974562Y-11005080D01*
X15313368Y-10500559D02*
X15380926Y-10525147D01*
X15247691Y-10471317D02*
X15313368Y-10500559D01*
X15238503Y-10466432D02*
X15247691Y-10471317D01*
X15230325Y-10470073D02*
X15238503Y-10466432D01*
X15207369Y-10478429D02*
X15230325Y-10470073D01*
X15793287Y-10750490D02*
X15730621Y-10746110D01*
X16036356Y-10811090D02*
X15977326Y-10789610D01*
X16261121Y-8154790D02*
X16356768Y-8197370D01*
X16813172Y-11045320D02*
X16369082Y-11045320D01*
X15542930Y-10759230D02*
X15481483Y-10772290D01*
X17045472Y-10960760D02*
X17022892Y-10977170D01*
X17108752Y-9032531D02*
X17141102Y-9132105D01*
X17199212Y-10645560D02*
X17198232Y-10673460D01*
X16333343Y-10357210D02*
X16388416Y-10310999D01*
X16275179Y-10399468D02*
X16333343Y-10357210D01*
X16214211Y-10437566D02*
X16275179Y-10399468D01*
X16150733Y-10471317D02*
X16214211Y-10437566D01*
X16085056Y-10500559D02*
X16150733Y-10471317D01*
X15591056Y-8128430D02*
X15614540Y-8135160D01*
X15568101Y-8120070D02*
X15591056Y-8128430D01*
X15545783Y-8110140D02*
X15568101Y-8120070D01*
X15524214Y-8098670D02*
X15545783Y-8110140D01*
X16922822Y-11025980D02*
X16895982Y-11033680D01*
X14331562Y-10942820D02*
X14311482Y-10923420D01*
X14352952Y-10960760D02*
X14331562Y-10942820D01*
X14375532Y-10977170D02*
X14352952Y-10960760D01*
X14949212Y-8246520D02*
X15041656Y-8197370D01*
X14860424Y-8302000D02*
X14949212Y-8246520D01*
X14775721Y-8363540D02*
X14860424Y-8302000D01*
X14695512Y-8430840D02*
X14775721Y-8363540D01*
X17198232Y-10673460D02*
X17195322Y-10701230D01*
X16912742Y-8663883D02*
X16971282Y-8750682D01*
X15145118Y-10936350D02*
X15096995Y-10976730D01*
X17069532Y-8935456D02*
X17108752Y-9032531D01*
X15362068Y-10811090D02*
X15304679Y-10836640D01*
X15916941Y-10772290D02*
X15855494Y-10759230D01*
X15249212Y-10866140D02*
X15195939Y-10899430D01*
X17141102Y-9132105D02*
X17166432Y-9233693D01*
X14449372Y-11016430D02*
X14423862Y-11005080D01*
X17183712Y-10755810D02*
X17175092Y-10782370D01*
X17086942Y-10923420D02*
X17066862Y-10942820D01*
X15686997Y-8145350D02*
X15711427Y-8145350D01*
X15662628Y-8143640D02*
X15686997Y-8145350D01*
X15638436Y-8140240D02*
X15662628Y-8143640D01*
X15614540Y-8135160D02*
X15638436Y-8140240D01*
X14758260Y-9126622D02*
X14731329Y-9193280D01*
X14789777Y-9062004D02*
X14758260Y-9126622D01*
X14825723Y-8999744D02*
X14789777Y-9062004D01*
X14865925Y-8940142D02*
X14825723Y-8999744D01*
X16202485Y-10899430D02*
X16149212Y-10866140D01*
X16301429Y-10976730D02*
X16253306Y-10936350D01*
X16848282Y-8581380D02*
X16912742Y-8663883D01*
X17195322Y-10701230D02*
X17190472Y-10728720D01*
X17184612Y-9336801D02*
X17195562Y-9440926D01*
X16841022Y-11043370D02*
X16813172Y-11045320D01*
X14671722Y-9473711D02*
X14669212Y-9545560D01*
X14679232Y-9402213D02*
X14671722Y-9473711D01*
X14691722Y-9331412D02*
X14679232Y-9402213D01*
X14709113Y-9261655D02*
X14691722Y-9331412D01*
X14731329Y-9193280D02*
X14709113Y-9261655D01*
X16449212Y-8246520D02*
X16538000Y-8302000D01*
X14557402Y-11043370D02*
X14529752Y-11039480D01*
X16971282Y-8750682D02*
X17023632Y-8841353D01*
X16538000Y-8302000D02*
X16622703Y-8363540D01*
D10*
X15566000Y-8225000D02*
X15636000Y-8295000D01*
X15636000Y-8225000D02*
X15566000Y-8295000D01*
X15736000Y-8225000D02*
X15806000Y-8295000D01*
X15806000Y-8225000D02*
X15736000Y-8295000D01*
D11*
X14475640Y-11521034D02*
X14475640Y-11221034D01*
X14547069Y-11221034D01*
X14589926Y-11235320D01*
X14618498Y-11263891D01*
X14632783Y-11292463D01*
X14647069Y-11349606D01*
X14647069Y-11392463D01*
X14632783Y-11449606D01*
X14618498Y-11478177D01*
X14589926Y-11506749D01*
X14547069Y-11521034D01*
X14475640Y-11521034D01*
X14775640Y-11521034D02*
X14775640Y-11321034D01*
X14775640Y-11378177D02*
X14789926Y-11349606D01*
X14804212Y-11335320D01*
X14832783Y-11321034D01*
X14861355Y-11321034D01*
X14961355Y-11521034D02*
X14961355Y-11321034D01*
X14961355Y-11221034D02*
X14947069Y-11235320D01*
X14961355Y-11249606D01*
X14975640Y-11235320D01*
X14961355Y-11221034D01*
X14961355Y-11249606D01*
X15147069Y-11521034D02*
X15118498Y-11506749D01*
X15104212Y-11478177D01*
X15104212Y-11221034D01*
X15304212Y-11521034D02*
X15275640Y-11506749D01*
X15261355Y-11478177D01*
X15261355Y-11221034D01*
X15647069Y-11521034D02*
X15647069Y-11221034D01*
X15747069Y-11435320D01*
X15847069Y-11221034D01*
X15847069Y-11521034D01*
X16118498Y-11521034D02*
X16118498Y-11363891D01*
X16104212Y-11335320D01*
X16075640Y-11321034D01*
X16018498Y-11321034D01*
X15989926Y-11335320D01*
X16118498Y-11506749D02*
X16089926Y-11521034D01*
X16018498Y-11521034D01*
X15989926Y-11506749D01*
X15975640Y-11478177D01*
X15975640Y-11449606D01*
X15989926Y-11421034D01*
X16018498Y-11406749D01*
X16089926Y-11406749D01*
X16118498Y-11392463D01*
X16261355Y-11321034D02*
X16261355Y-11621034D01*
X16261355Y-11335320D02*
X16289926Y-11321034D01*
X16347069Y-11321034D01*
X16375640Y-11335320D01*
X16389926Y-11349606D01*
X16404212Y-11378177D01*
X16404212Y-11463891D01*
X16389926Y-11492463D01*
X16375640Y-11506749D01*
X16347069Y-11521034D01*
X16289926Y-11521034D01*
X16261355Y-11506749D01*
X16532783Y-11492463D02*
X16547069Y-11506749D01*
X16532783Y-11521034D01*
X16518498Y-11506749D01*
X16532783Y-11492463D01*
X16532783Y-11521034D01*
X16532783Y-11335320D02*
X16547069Y-11349606D01*
X16532783Y-11363891D01*
X16518498Y-11349606D01*
X16532783Y-11335320D01*
X16532783Y-11363891D01*
X14119212Y-11980320D02*
X14189212Y-12050320D01*
X14189212Y-11980320D02*
X14119212Y-12050320D01*
X14532783Y-11851034D02*
X14561355Y-11851034D01*
X14589926Y-11865320D01*
X14604212Y-11879606D01*
X14618498Y-11908177D01*
X14632783Y-11965320D01*
X14632783Y-12036749D01*
X14618498Y-12093891D01*
X14604212Y-12122463D01*
X14589926Y-12136749D01*
X14561355Y-12151034D01*
X14532783Y-12151034D01*
X14504212Y-12136749D01*
X14489926Y-12122463D01*
X14475640Y-12093891D01*
X14461355Y-12036749D01*
X14461355Y-11965320D01*
X14475640Y-11908177D01*
X14489926Y-11879606D01*
X14504212Y-11865320D01*
X14532783Y-11851034D01*
X14761355Y-12122463D02*
X14775640Y-12136749D01*
X14761355Y-12151034D01*
X14747069Y-12136749D01*
X14761355Y-12122463D01*
X14761355Y-12151034D01*
X14875640Y-11851034D02*
X15075640Y-11851034D01*
X14947069Y-12151034D01*
X15247069Y-11851034D02*
X15275640Y-11851034D01*
X15304212Y-11865320D01*
X15318498Y-11879606D01*
X15332783Y-11908177D01*
X15347069Y-11965320D01*
X15347069Y-12036749D01*
X15332783Y-12093891D01*
X15318498Y-12122463D01*
X15304212Y-12136749D01*
X15275640Y-12151034D01*
X15247069Y-12151034D01*
X15218498Y-12136749D01*
X15204212Y-12122463D01*
X15189926Y-12093891D01*
X15175640Y-12036749D01*
X15175640Y-11965320D01*
X15189926Y-11908177D01*
X15204212Y-11879606D01*
X15218498Y-11865320D01*
X15247069Y-11851034D01*
X15475640Y-12151034D02*
X15475640Y-11951034D01*
X15475640Y-11979606D02*
X15489926Y-11965320D01*
X15518498Y-11951034D01*
X15561355Y-11951034D01*
X15589926Y-11965320D01*
X15604212Y-11993891D01*
X15604212Y-12151034D01*
X15604212Y-11993891D02*
X15618498Y-11965320D01*
X15647069Y-11951034D01*
X15689926Y-11951034D01*
X15718498Y-11965320D01*
X15732783Y-11993891D01*
X15732783Y-12151034D01*
X15875640Y-12151034D02*
X15875640Y-11951034D01*
X15875640Y-11979606D02*
X15889926Y-11965320D01*
X15918498Y-11951034D01*
X15961355Y-11951034D01*
X15989926Y-11965320D01*
X16004212Y-11993891D01*
X16004212Y-12151034D01*
X16004212Y-11993891D02*
X16018498Y-11965320D01*
X16047069Y-11951034D01*
X16089926Y-11951034D01*
X16118498Y-11965320D01*
X16132783Y-11993891D01*
X16132783Y-12151034D01*
X16718498Y-11836749D02*
X16461355Y-12222463D01*
X17104212Y-11851034D02*
X17132783Y-11851034D01*
X17161355Y-11865320D01*
X17175641Y-11879606D01*
X17189926Y-11908177D01*
X17204212Y-11965320D01*
X17204212Y-12036749D01*
X17189926Y-12093891D01*
X17175641Y-12122463D01*
X17161355Y-12136749D01*
X17132783Y-12151034D01*
X17104212Y-12151034D01*
X17075641Y-12136749D01*
X17061355Y-12122463D01*
X17047069Y-12093891D01*
X17032783Y-12036749D01*
X17032783Y-11965320D01*
X17047069Y-11908177D01*
X17061355Y-11879606D01*
X17075641Y-11865320D01*
X17104212Y-11851034D01*
X17332783Y-12122463D02*
X17347069Y-12136749D01*
X17332783Y-12151034D01*
X17318498Y-12136749D01*
X17332783Y-12122463D01*
X17332783Y-12151034D01*
X17532783Y-11851034D02*
X17561355Y-11851034D01*
X17589926Y-11865320D01*
X17604212Y-11879606D01*
X17618498Y-11908177D01*
X17632783Y-11965320D01*
X17632783Y-12036749D01*
X17618498Y-12093891D01*
X17604212Y-12122463D01*
X17589926Y-12136749D01*
X17561355Y-12151034D01*
X17532783Y-12151034D01*
X17504212Y-12136749D01*
X17489926Y-12122463D01*
X17475641Y-12093891D01*
X17461355Y-12036749D01*
X17461355Y-11965320D01*
X17475641Y-11908177D01*
X17489926Y-11879606D01*
X17504212Y-11865320D01*
X17532783Y-11851034D01*
X17747069Y-11879606D02*
X17761355Y-11865320D01*
X17789926Y-11851034D01*
X17861355Y-11851034D01*
X17889926Y-11865320D01*
X17904212Y-11879606D01*
X17918498Y-11908177D01*
X17918498Y-11936749D01*
X17904212Y-11979606D01*
X17732783Y-12151034D01*
X17918498Y-12151034D01*
X18089926Y-11979606D02*
X18061355Y-11965320D01*
X18047069Y-11951034D01*
X18032783Y-11922463D01*
X18032783Y-11908177D01*
X18047069Y-11879606D01*
X18061355Y-11865320D01*
X18089926Y-11851034D01*
X18147069Y-11851034D01*
X18175641Y-11865320D01*
X18189926Y-11879606D01*
X18204212Y-11908177D01*
X18204212Y-11922463D01*
X18189926Y-11951034D01*
X18175641Y-11965320D01*
X18147069Y-11979606D01*
X18089926Y-11979606D01*
X18061355Y-11993891D01*
X18047069Y-12008177D01*
X18032783Y-12036749D01*
X18032783Y-12093891D01*
X18047069Y-12122463D01*
X18061355Y-12136749D01*
X18089926Y-12151034D01*
X18147069Y-12151034D01*
X18175641Y-12136749D01*
X18189926Y-12122463D01*
X18204212Y-12093891D01*
X18204212Y-12036749D01*
X18189926Y-12008177D01*
X18175641Y-11993891D01*
X18147069Y-11979606D01*
X18318498Y-11851034D02*
X18318498Y-11908177D01*
X18432783Y-11851034D02*
X18432783Y-11908177D01*
X18875641Y-12265320D02*
X18861355Y-12251034D01*
X18832783Y-12208177D01*
X18818498Y-12179606D01*
X18804212Y-12136749D01*
X18789926Y-12065320D01*
X18789926Y-12008177D01*
X18804212Y-11936749D01*
X18818498Y-11893891D01*
X18832783Y-11865320D01*
X18861355Y-11822463D01*
X18875641Y-11808177D01*
X18975641Y-11879606D02*
X18989926Y-11865320D01*
X19018498Y-11851034D01*
X19089926Y-11851034D01*
X19118498Y-11865320D01*
X19132783Y-11879606D01*
X19147069Y-11908177D01*
X19147069Y-11936749D01*
X19132783Y-11979606D01*
X18961355Y-12151034D01*
X19147069Y-12151034D01*
X19504212Y-12151034D02*
X19504212Y-11851034D01*
X19632783Y-12151034D02*
X19632783Y-11993891D01*
X19618498Y-11965320D01*
X19589926Y-11951034D01*
X19547069Y-11951034D01*
X19518498Y-11965320D01*
X19504212Y-11979606D01*
X19818498Y-12151034D02*
X19789926Y-12136749D01*
X19775641Y-12122463D01*
X19761355Y-12093891D01*
X19761355Y-12008177D01*
X19775641Y-11979606D01*
X19789926Y-11965320D01*
X19818498Y-11951034D01*
X19861355Y-11951034D01*
X19889926Y-11965320D01*
X19904212Y-11979606D01*
X19918498Y-12008177D01*
X19918498Y-12093891D01*
X19904212Y-12122463D01*
X19889926Y-12136749D01*
X19861355Y-12151034D01*
X19818498Y-12151034D01*
X20089926Y-12151034D02*
X20061355Y-12136749D01*
X20047069Y-12108177D01*
X20047069Y-11851034D01*
X20318498Y-12136749D02*
X20289926Y-12151034D01*
X20232783Y-12151034D01*
X20204212Y-12136749D01*
X20189926Y-12108177D01*
X20189926Y-11993891D01*
X20204212Y-11965320D01*
X20232783Y-11951034D01*
X20289926Y-11951034D01*
X20318498Y-11965320D01*
X20332783Y-11993891D01*
X20332783Y-12022463D01*
X20189926Y-12051034D01*
X20447069Y-12136749D02*
X20475641Y-12151034D01*
X20532783Y-12151034D01*
X20561355Y-12136749D01*
X20575641Y-12108177D01*
X20575641Y-12093891D01*
X20561355Y-12065320D01*
X20532783Y-12051034D01*
X20489926Y-12051034D01*
X20461355Y-12036749D01*
X20447069Y-12008177D01*
X20447069Y-11993891D01*
X20461355Y-11965320D01*
X20489926Y-11951034D01*
X20532783Y-11951034D01*
X20561355Y-11965320D01*
X20675641Y-12265320D02*
X20689926Y-12251034D01*
X20718498Y-12208177D01*
X20732783Y-12179606D01*
X20747069Y-12136749D01*
X20761355Y-12065320D01*
X20761355Y-12008177D01*
X20747069Y-11936749D01*
X20732783Y-11893891D01*
X20718498Y-11865320D01*
X20689926Y-11822463D01*
X20675641Y-11808177D01*
X21218498Y-12265320D02*
X21204212Y-12251034D01*
X21175641Y-12208177D01*
X21161355Y-12179606D01*
X21147069Y-12136749D01*
X21132783Y-12065320D01*
X21132783Y-12008177D01*
X21147069Y-11936749D01*
X21161355Y-11893891D01*
X21175641Y-11865320D01*
X21204212Y-11822463D01*
X21218498Y-11808177D01*
X21332783Y-11951034D02*
X21332783Y-12151034D01*
X21332783Y-11979606D02*
X21347069Y-11965320D01*
X21375641Y-11951034D01*
X21418498Y-11951034D01*
X21447069Y-11965320D01*
X21461355Y-11993891D01*
X21461355Y-12151034D01*
X21647069Y-12151034D02*
X21618498Y-12136749D01*
X21604212Y-12122463D01*
X21589926Y-12093891D01*
X21589926Y-12008177D01*
X21604212Y-11979606D01*
X21618498Y-11965320D01*
X21647069Y-11951034D01*
X21689926Y-11951034D01*
X21718498Y-11965320D01*
X21732783Y-11979606D01*
X21747069Y-12008177D01*
X21747069Y-12093891D01*
X21732783Y-12122463D01*
X21718498Y-12136749D01*
X21689926Y-12151034D01*
X21647069Y-12151034D01*
X21832783Y-11951034D02*
X21947069Y-11951034D01*
X21875641Y-11851034D02*
X21875641Y-12108177D01*
X21889926Y-12136749D01*
X21918498Y-12151034D01*
X21947069Y-12151034D01*
X22275641Y-11951034D02*
X22275641Y-12251034D01*
X22275641Y-11965320D02*
X22304212Y-11951034D01*
X22361355Y-11951034D01*
X22389926Y-11965320D01*
X22404212Y-11979606D01*
X22418498Y-12008177D01*
X22418498Y-12093891D01*
X22404212Y-12122463D01*
X22389926Y-12136749D01*
X22361355Y-12151034D01*
X22304212Y-12151034D01*
X22275641Y-12136749D01*
X22589926Y-12151034D02*
X22561355Y-12136749D01*
X22547069Y-12108177D01*
X22547069Y-11851034D01*
X22832783Y-12151034D02*
X22832783Y-11993891D01*
X22818498Y-11965320D01*
X22789926Y-11951034D01*
X22732783Y-11951034D01*
X22704212Y-11965320D01*
X22832783Y-12136749D02*
X22804212Y-12151034D01*
X22732783Y-12151034D01*
X22704212Y-12136749D01*
X22689926Y-12108177D01*
X22689926Y-12079606D01*
X22704212Y-12051034D01*
X22732783Y-12036749D01*
X22804212Y-12036749D01*
X22832783Y-12022463D01*
X22932783Y-11951034D02*
X23047069Y-11951034D01*
X22975640Y-11851034D02*
X22975640Y-12108177D01*
X22989926Y-12136749D01*
X23018498Y-12151034D01*
X23047069Y-12151034D01*
X23261355Y-12136749D02*
X23232783Y-12151034D01*
X23175640Y-12151034D01*
X23147069Y-12136749D01*
X23132783Y-12108177D01*
X23132783Y-11993891D01*
X23147069Y-11965320D01*
X23175640Y-11951034D01*
X23232783Y-11951034D01*
X23261355Y-11965320D01*
X23275640Y-11993891D01*
X23275640Y-12022463D01*
X23132783Y-12051034D01*
X23532783Y-12151034D02*
X23532783Y-11851034D01*
X23532783Y-12136749D02*
X23504212Y-12151034D01*
X23447069Y-12151034D01*
X23418498Y-12136749D01*
X23404212Y-12122463D01*
X23389926Y-12093891D01*
X23389926Y-12008177D01*
X23404212Y-11979606D01*
X23418498Y-11965320D01*
X23447069Y-11951034D01*
X23504212Y-11951034D01*
X23532783Y-11965320D01*
X23647069Y-12265320D02*
X23661355Y-12251034D01*
X23689926Y-12208177D01*
X23704212Y-12179606D01*
X23718498Y-12136749D01*
X23732783Y-12065320D01*
X23732783Y-12008177D01*
X23718498Y-11936749D01*
X23704212Y-11893891D01*
X23689926Y-11865320D01*
X23661355Y-11822463D01*
X23647069Y-11808177D01*
M02*
